<?xml version="1.0" standalone="no"?>
<!DOCTYPE svg PUBLIC "-//W3C//DTD SVG 20010904//EN"
 "http://www.w3.org/TR/2001/REC-SVG-20010904/DTD/svg10.dtd">
<svg version="1.0" xmlns="http://www.w3.org/2000/svg"
 width="2280" height="680" viewBox="0 0 1280 490"
 preserveAspectRatio="xMidYMid meet">
<metadata>
Created by potrace 1.15, written by Peter Selinger 2001-2017
</metadata>
<g transform="translate(0.000000,731.000000) scale(0.100000,-0.100000)"
fill="#9CD08F" stroke="none">
<path d="M4004 3608 c-9 -29 -24 -66 -32 -83 l-15 -30 -18 42 c-25 59 -62 68
-100 26 -37 -42 -67 -166 -51 -213 16 -43 9 -50 -37 -38 -30 8 -47 6 -72 -5
-19 -8 -48 -20 -66 -27 -54 -20 -54 -63 -1 -74 17 -3 54 -6 84 -6 29 0 55 -4
58 -8 3 -5 -6 -31 -18 -59 -39 -83 -41 -106 -11 -141 25 -30 28 -31 103 -29
l76 2 9 -30 c6 -23 3 -46 -11 -90 -11 -33 -24 -61 -29 -62 -5 -2 -17 12 -26
32 -20 42 -34 45 -43 8 -13 -61 -15 -63 -45 -63 -56 0 -49 -37 20 -105 46 -45
49 -55 23 -78 -10 -9 -31 -44 -47 -77 -16 -33 -31 -60 -34 -60 -3 0 -14 14
-23 30 -12 21 -25 30 -42 30 -32 0 -46 -26 -46 -85 0 -41 -2 -46 -17 -40 -10
5 -38 9 -63 10 -27 2 -46 8 -48 16 -11 43 -12 43 -27 28 -16 -17 -45 -112 -45
-149 0 -14 -6 -32 -12 -39 -7 -6 -13 -16 -13 -22 0 -5 -3 -9 -7 -9 -5 0 -12 0
-18 0 -5 0 -10 22 -10 48 0 64 -19 159 -35 172 -26 22 -40 -19 -42 -128 -2
-85 -6 -107 -20 -117 -15 -11 -15 -13 6 -24 17 -10 21 -20 19 -44 -6 -66 -31
-43 -137 130 -215 350 -297 463 -334 463 -10 0 -17 -8 -17 -17 0 -12 -16 0
-46 35 -26 29 -59 59 -75 67 -32 17 -69 20 -69 5 0 -14 159 -338 220 -447 28
-51 47 -93 43 -93 -5 0 -36 24 -70 54 -89 78 -120 98 -146 94 -19 -3 -14 -10
41 -56 177 -147 331 -326 319 -370 -4 -13 -5 -12 -6 4 0 11 -14 30 -30 42
l-29 21 -16 -24 c-23 -35 -36 -31 -36 9 0 36 -32 86 -55 86 -8 0 -29 -13 -48
-29 l-33 -30 -58 101 c-54 94 -151 226 -168 227 -16 2 -7 -22 33 -90 39 -68
110 -215 124 -257 6 -19 3 -22 -25 -22 -17 0 -40 -5 -51 -10 -18 -10 -18 -12
-3 -43 9 -18 32 -46 52 -63 34 -29 34 -31 14 -36 -15 -4 -22 -2 -22 7 0 8 -12
15 -27 17 -25 3 -29 8 -39 63 -6 33 -12 50 -13 38 -2 -36 -16 -27 -46 29 -16
29 -45 75 -66 102 -21 27 -40 64 -44 83 -7 37 -11 38 -67 21 -34 -10 -41 -9
-49 4 -5 8 -22 21 -38 27 -22 10 -32 23 -40 55 -5 23 -21 52 -34 64 -22 21
-24 21 -39 5 -8 -10 -20 -31 -25 -48 -9 -28 -13 -30 -60 -31 -58 -1 -73 -8
-73 -35 0 -28 27 -90 53 -119 12 -14 28 -35 35 -48 l13 -23 -60 3 c-33 1 -63
0 -66 -4 -12 -12 25 -66 70 -104 41 -33 45 -40 39 -68 -8 -40 -22 -56 -40 -49
-8 3 -14 0 -14 -6 0 -6 -11 -11 -25 -11 -14 0 -25 -4 -25 -9 0 -5 -18 -18 -39
-29 l-39 -21 -30 62 c-31 62 -96 147 -113 147 -5 0 7 -25 27 -55 35 -56 74
-138 74 -157 0 -7 -19 -9 -54 -4 -72 8 -81 12 -95 44 -9 18 -15 22 -20 14 -12
-20 -41 -2 -56 34 -15 36 -35 43 -55 19 -13 -16 -57 -20 -76 -7 -7 4 -21 37
-32 74 -23 79 -68 161 -85 155 -17 -5 -29 -74 -25 -144 2 -35 3 -63 2 -63 -1
0 -13 18 -27 40 -16 22 -23 42 -17 45 21 13 8 52 -31 93 -22 23 -48 42 -57 42
-16 1 -16 2 0 14 10 7 28 36 41 65 l22 51 57 -55 c60 -59 83 -67 93 -35 3 11
13 20 21 20 8 0 14 6 14 13 0 7 8 29 19 49 26 52 18 82 -27 97 -53 19 -102 50
-102 66 0 7 -7 19 -16 26 -22 18 -34 53 -44 123 -5 33 -16 66 -26 75 -15 15
-16 12 -11 -42 7 -83 -15 -153 -38 -117 -3 6 -13 10 -21 10 -8 0 -31 12 -50
28 -41 33 -45 74 -14 148 11 26 19 52 16 58 -2 6 -11 -6 -20 -27 -9 -21 -43
-64 -75 -97 -69 -69 -120 -164 -190 -348 -67 -177 -66 -176 -85 -130 -9 21
-16 48 -16 62 0 23 -45 245 -55 275 -10 26 -32 -8 -50 -74 -10 -36 -20 -65
-22 -65 -17 0 -63 45 -63 61 0 11 -7 36 -15 56 -12 28 -18 33 -29 24 -7 -6
-16 -28 -20 -49 -5 -30 -13 -41 -45 -60 -22 -12 -52 -39 -67 -60 -16 -20 -39
-49 -53 -65 l-25 -27 -18 46 c-20 51 -74 134 -87 134 -13 0 -20 -25 -14 -52 2
-12 -10 6 -29 41 -56 110 -84 82 -29 -29 26 -52 28 -60 14 -71 -8 -7 -31 -12
-50 -12 l-35 1 58 -51 c31 -29 63 -56 70 -60 22 -13 17 -26 -31 -75 l-45 -45
0 35 c0 37 -32 88 -55 88 -7 0 -27 -12 -44 -26 l-31 -26 0 -197 0 -198 31 -42
c25 -35 33 -40 45 -30 8 6 16 10 18 8 9 -12 37 -168 34 -189 l-4 -25 -11 25
c-6 14 -17 44 -24 68 -8 26 -26 55 -48 74 l-36 32 -3 -315 c-2 -226 1 -325 9
-352 10 -29 10 -40 1 -49 -9 -9 -12 -130 -12 -455 l0 -443 6400 0 6400 0 0
611 0 611 -35 62 c-19 35 -35 75 -35 90 0 33 20 74 49 100 20 18 21 29 21 222
l0 204 -26 -10 c-42 -17 -76 -13 -70 8 12 43 17 142 8 159 -10 16 -11 16 -21
-7 -5 -14 -17 -61 -26 -105 -8 -44 -19 -83 -23 -87 -4 -4 -27 11 -50 35 l-42
43 18 34 c9 19 25 46 35 60 18 27 23 105 7 115 -5 3 -10 24 -10 45 0 41 -15
62 -23 33 -3 -10 -8 -38 -11 -63 -9 -62 -28 -90 -21 -30 3 25 12 153 20 285 9
132 20 258 25 280 14 56 37 172 45 223 8 51 22 59 72 39 34 -13 38 -19 50 -73
8 -32 20 -66 28 -74 13 -13 15 19 15 263 0 263 -1 277 -19 287 -40 21 -78 12
-99 -22 -15 -23 -22 -28 -26 -18 -2 8 -10 32 -16 53 -6 20 -17 37 -24 37 -24
0 -95 -70 -106 -105 -6 -19 -14 -35 -16 -35 -3 0 -21 16 -41 35 -39 38 -68 42
-86 13 -8 -12 -7 -21 3 -34 8 -9 15 -39 16 -65 1 -41 -4 -53 -28 -76 -15 -14
-28 -32 -28 -39 0 -6 -7 -14 -15 -18 -9 -3 -15 -18 -15 -35 0 -33 30 -61 65
-61 43 0 50 -14 32 -62 -19 -49 -22 -94 -7 -103 13 -8 48 11 86 46 l30 29 28
-29 28 -30 -16 -88 c-8 -48 -22 -160 -30 -248 -20 -207 -36 -370 -42 -421 -4
-39 -6 -40 -36 -36 -17 3 -32 12 -35 21 -4 15 -46 41 -67 41 -25 0 -96 34 -93
44 2 6 24 19 48 28 28 11 36 17 23 17 -32 1 -106 -27 -130 -50 -11 -10 -59
-39 -107 -63 -79 -39 -137 -88 -137 -115 0 -6 -6 -11 -14 -11 -8 0 -31 -27
-52 -60 -20 -33 -42 -60 -49 -60 -10 0 -35 40 -35 55 0 3 14 12 31 21 27 13
30 20 25 45 -9 45 -81 109 -125 110 -64 3 -69 4 -77 11 -14 15 -34 8 -34 -11
0 -12 -15 -27 -42 -41 -50 -26 -148 -40 -148 -21 0 17 36 77 160 271 148 229
167 266 190 358 28 111 18 131 -45 92 -83 -51 -302 -356 -409 -568 -52 -104
-66 -95 -66 39 0 75 -1 80 -21 77 -13 -2 -25 6 -34 22 -26 46 -135 295 -135
308 0 31 -57 120 -112 176 -34 34 -58 52 -53 41 12 -33 55 -158 55 -162 0 -7
-81 -43 -98 -43 -25 0 -42 62 -43 157 l-1 68 -15 -42 c-17 -49 -21 -50 -54
-24 -20 15 -33 17 -74 11 -28 -4 -53 -6 -56 -4 -3 2 -9 59 -12 126 -4 68 -8
131 -9 140 -2 11 15 29 46 50 68 46 110 100 102 132 -8 34 -59 68 -112 74 -45
5 -52 10 -34 28 6 6 13 53 17 106 6 91 5 96 -15 102 -12 4 -34 0 -51 -8 -17
-9 -33 -16 -37 -16 -7 0 0 81 12 120 14 51 -14 4 -41 -67 -26 -72 -45 -93 -45
-53 0 27 -43 70 -69 70 -47 0 -99 -138 -88 -232 l6 -51 -45 7 c-64 8 -167 -34
-172 -72 -4 -29 30 -42 109 -42 73 0 79 -10 45 -79 -31 -61 -33 -100 -5 -135
20 -25 24 -26 99 -22 l79 5 9 -29 c8 -22 6 -43 -11 -94 -12 -36 -25 -66 -30
-66 -4 0 -15 16 -24 35 -9 19 -22 35 -29 35 -13 0 -24 -31 -24 -67 0 -18 -6
-23 -27 -23 -50 0 -59 -13 -35 -51 11 -19 37 -49 56 -68 l36 -35 -26 -33 c-31
-41 -57 -101 -50 -119 3 -7 23 -18 46 -25 36 -11 41 -16 38 -38 -2 -17 -8 -25
-18 -22 -8 2 -28 6 -43 9 -20 3 -33 15 -49 46 -28 57 -47 76 -75 76 -28 0 -46
-37 -41 -90 3 -30 0 -34 -17 -31 -11 2 -42 4 -70 5 -33 0 -54 6 -62 16 -13 18
-18 3 -28 -93 -5 -42 -12 -60 -26 -67 -10 -6 -19 -17 -19 -25 0 -9 -6 -12 -15
-9 -8 4 -15 14 -15 24 0 29 -17 33 -24 7 -4 -16 -20 -29 -48 -41 l-43 -17 23
-19 c12 -10 28 -20 34 -22 6 -2 9 -12 5 -21 -8 -21 -59 -46 -64 -32 -2 6 -38
66 -81 135 -43 69 -110 178 -150 242 -84 134 -141 210 -177 234 -23 15 -27 15
-38 2 -10 -13 -21 -6 -71 49 -51 55 -56 63 -33 58 22 -6 29 -1 50 32 27 42 30
83 8 146 -12 36 -11 40 10 64 23 23 24 32 24 155 0 89 -4 132 -11 135 -7 2
-37 -21 -68 -52 -55 -54 -67 -63 -65 -47 4 27 -5 48 -35 78 -47 47 -95 48
-127 2 l-23 -31 -16 48 c-9 27 -21 50 -26 52 -27 9 -114 -82 -114 -119 0 -25
-7 -23 -51 17 -44 40 -69 44 -87 15 -10 -17 -9 -23 6 -36 28 -24 19 -112 -14
-137 -13 -10 -24 -27 -24 -37 0 -10 -9 -20 -20 -23 -15 -4 -20 -14 -20 -36 0
-26 6 -34 33 -46 17 -7 44 -16 59 -19 l27 -6 -20 -57 c-21 -63 -24 -89 -9 -98
14 -8 73 21 100 50 l23 25 27 -30 28 -31 -14 -69 c-12 -67 -28 -196 -39 -325
-11 -139 -18 -176 -29 -170 -6 3 -19 8 -28 11 -11 4 -18 17 -18 31 0 26 -14
58 -38 85 -21 25 -49 7 -63 -43 -12 -38 -15 -40 -48 -38 -86 5 -100 0 -150
-49 -26 -26 -53 -56 -58 -66 -10 -17 -14 -15 -55 28 -39 40 -50 46 -86 46 -38
0 -42 -2 -42 -25 0 -33 -11 -31 -35 8 -32 51 -56 43 -82 -28 -14 -38 -21 -72
-17 -92 6 -38 2 -39 -56 -18 -45 16 -119 11 -132 -9 -4 -6 -8 -30 -8 -52 0
-32 -4 -43 -19 -47 -14 -3 -17 0 -14 13 3 10 -8 32 -26 52 l-30 35 30 49 c17
27 33 51 35 53 2 3 19 -10 37 -27 18 -18 36 -32 41 -32 13 0 66 58 66 72 0 8
7 23 15 34 8 10 15 33 15 51 0 27 -4 32 -30 38 -16 4 -32 10 -35 15 -3 4 18
47 46 95 76 129 111 275 68 283 -22 4 -97 -65 -170 -156 -34 -42 -65 -78 -70
-80 -4 -2 -10 18 -14 45 -10 77 -15 93 -28 93 -8 0 -12 -23 -12 -79 0 -44 -3
-82 -6 -85 -9 -9 -73 20 -108 50 -37 31 -39 54 -11 124 26 66 25 96 -2 45 -11
-22 -49 -70 -83 -107 -36 -39 -73 -91 -86 -123 -13 -30 -26 -55 -29 -55 -6 0
-76 155 -86 190 -15 54 -55 118 -108 173 -30 31 -57 57 -59 57 -2 0 9 -37 25
-82 16 -45 27 -87 24 -94 -7 -17 -71 -46 -92 -42 -26 5 -46 89 -38 162 7 64
-9 73 -20 11 -8 -41 -24 -44 -56 -10 -13 14 -26 21 -29 17 -3 -5 -27 -12 -53
-15 l-46 -6 -6 87 c-4 48 -9 113 -12 144 l-5 57 54 34 c92 59 121 122 75 164
-34 31 -63 43 -102 43 -34 0 -35 0 -21 26 16 31 30 154 21 182 -9 29 -32 34
-72 17 -32 -13 -34 -13 -39 8 -3 12 1 43 9 70 21 71 1 57 -24 -17 -11 -34 -27
-71 -34 -81 -12 -17 -14 -16 -25 18 -8 24 -23 43 -41 52 -27 14 -29 13 -58
-19 -19 -22 -35 -57 -47 -105 -16 -66 -16 -92 1 -136 5 -13 2 -16 -17 -13 -17
2 -25 11 -29 32 -7 42 -25 43 -62 4 -18 -19 -43 -42 -55 -52 -22 -18 -22 -18
-36 16 -33 80 -112 102 -159 46 l-26 -33 -12 48 c-7 26 -17 50 -22 53 -5 3
-26 -6 -47 -20 -35 -24 -61 -62 -75 -108 -4 -13 -12 -9 -46 23 -46 44 -69 49
-88 19 -10 -17 -9 -23 6 -36 28 -24 19 -112 -14 -137 -13 -10 -24 -27 -24 -37
0 -10 -9 -20 -20 -23 -15 -4 -20 -14 -20 -36 0 -24 7 -34 30 -46 16 -8 37 -15
47 -15 39 0 44 -13 23 -68 -22 -58 -25 -88 -10 -97 14 -8 73 21 100 50 l23 25
27 -30 28 -31 -14 -69 c-12 -66 -28 -197 -38 -320 -7 -85 -27 -270 -35 -317
l-6 -43 -80 131 c-132 215 -249 392 -287 432 -36 38 -68 48 -68 22 0 -8 -29
14 -64 50 -51 52 -70 65 -95 65 -17 0 -31 -4 -31 -9 0 -14 160 -341 220 -448
28 -51 48 -93 44 -93 -3 0 -39 28 -80 63 -41 34 -88 70 -106 79 -53 29 -55 7
-3 -36 71 -60 245 -229 245 -239 0 -4 -4 -6 -8 -3 -9 5 -48 -8 -114 -37 -21
-10 -42 -17 -47 -17 -5 0 -13 -9 -16 -20 -3 -11 -13 -20 -21 -20 -8 0 -14 -9
-14 -21 0 -11 -8 -23 -17 -26 -10 -2 -31 -24 -46 -49 -16 -24 -32 -44 -37 -44
-16 0 -19 44 -3 55 25 18 9 57 -42 104 -44 40 -71 48 -138 41 -14 -1 -17 4
-12 24 3 14 7 37 10 51 3 14 2 37 -1 51 -7 28 -1 27 -91 7 -36 -8 -28 16 36
115 96 146 147 243 166 313 20 76 17 112 -8 117 -27 5 -151 -126 -247 -262
-50 -70 -88 -115 -95 -112 -17 6 -40 -20 -52 -59 -9 -28 -13 -30 -61 -30 -29
-1 -57 -6 -63 -12 -16 -16 -3 -74 26 -118 20 -28 23 -40 15 -56 -6 -10 -13
-19 -15 -19 -2 0 -16 39 -30 88 -15 48 -35 105 -45 127 -45 94 -122 273 -132
305 -19 65 -56 125 -112 183 -30 31 -57 57 -59 57 -2 0 9 -37 25 -82 16 -45
27 -87 24 -94 -7 -19 -64 -46 -89 -42 -29 4 -49 83 -41 162 7 64 -9 73 -20 11
-8 -41 -24 -44 -56 -10 -13 14 -26 21 -29 17 -3 -5 -27 -12 -53 -15 l-46 -6
-6 87 c-4 48 -9 113 -12 144 l-5 57 54 34 c61 39 97 83 97 119 0 43 -67 88
-130 88 -28 0 -28 1 -15 26 16 31 30 154 21 182 -9 29 -32 34 -72 17 -32 -13
-34 -13 -39 8 -3 12 1 43 9 70 19 64 2 60 -20 -5z m65 -650 c20 -178 11 -234
-23 -145 -20 52 -20 76 0 102 14 19 13 59 -2 135 -4 17 -2 22 5 15 5 -5 14
-54 20 -107z m6475 96 c3 -9 6 -34 6 -57 0 -23 5 -71 11 -106 10 -62 5 -121
-10 -121 -4 0 -15 25 -25 56 -16 51 -16 57 -2 79 18 28 21 116 6 146 -6 11 -7
19 -1 19 5 0 12 -7 15 -16z m-3715 -116 c20 -178 11 -234 -23 -145 -20 53 -20
71 0 102 15 23 14 77 -3 140 -4 14 -2 17 5 10 6 -5 15 -54 21 -107z m-608 20
c22 -6 39 -14 40 -17 0 -3 2 -15 3 -26 15 -109 62 -153 113 -106 13 12 29 18
41 14 27 -7 77 65 67 96 -8 27 3 45 19 32 6 -5 45 -9 86 -8 l74 2 9 -30 c6
-23 3 -46 -11 -90 -11 -33 -24 -61 -29 -62 -5 -2 -17 12 -26 32 -26 54 -38 46
-49 -30 -2 -14 -13 -21 -38 -25 -52 -7 -49 -31 11 -95 38 -41 50 -60 44 -69
-83 -111 -86 -152 -12 -170 29 -7 43 -27 34 -50 -5 -12 -13 -12 -49 -2 -37 11
-47 21 -73 67 -21 37 -38 55 -53 57 -38 6 -52 -15 -52 -75 0 -52 -1 -54 -22
-47 -49 15 -64 22 -77 38 -19 23 -29 20 -23 -9 5 -28 -15 -35 -25 -9 -11 29
-33 -14 -33 -65 0 -25 -3 -56 -6 -68 -8 -28 -43 -37 -66 -16 -9 8 -25 13 -34
9 -15 -6 -16 4 -10 106 12 204 27 342 41 389 7 26 16 73 20 105 9 82 24 134
37 134 6 0 28 -5 49 -12z m2760 -20 c22 -6 39 -14 40 -17 0 -3 2 -15 3 -26 8
-60 29 -107 51 -117 16 -7 37 -42 69 -112 26 -55 83 -168 127 -250 44 -81 78
-150 76 -153 -3 -2 -20 9 -38 25 -105 90 -151 122 -177 122 -26 -1 -26 -2 18
-38 25 -20 89 -79 142 -131 l97 -94 -37 -27 c-20 -15 -53 -50 -72 -78 -33 -49
-61 -72 -42 -34 5 9 12 34 15 56 5 32 3 39 -13 43 -13 3 -20 14 -20 29 0 33
-12 30 -32 -7 -14 -23 -18 -53 -18 -119 0 -104 -5 -111 -88 -115 -32 -1 -67
-5 -78 -9 -20 -6 -20 -3 -16 79 3 56 1 85 -6 85 -6 0 -14 -9 -17 -21 l-7 -21
-22 21 c-12 12 -33 21 -45 21 -18 0 -22 4 -16 18 14 30 28 139 21 157 -5 13
-13 16 -37 11 l-31 -6 7 103 c12 203 26 332 40 382 8 27 17 73 20 100 9 73 26
135 38 135 5 0 27 -5 48 -12z m-4757 -259 c11 -54 8 -59 -29 -59 -19 0 -35 4
-35 9 0 12 43 80 51 81 4 0 9 -14 13 -31z m6488 -24 c2 -25 -1 -31 -20 -33
-48 -7 -53 4 -25 48 29 43 39 40 45 -15z m-3728 4 c11 -54 8 -59 -29 -59 -19
0 -35 4 -35 9 0 12 43 80 51 81 4 0 9 -14 13 -31z m-2426 -218 c46 -66 42 -85
-12 -52 -18 12 -41 21 -50 21 -17 0 -17 20 0 83 7 23 13 18 62 -52z m6480 10
c57 -80 57 -100 -3 -61 -16 11 -41 20 -54 20 -18 0 -22 4 -16 18 4 9 9 32 12
50 3 17 8 32 12 32 3 0 25 -27 49 -59z m-3724 -23 c52 -69 49 -94 -7 -59 -19
11 -42 21 -51 21 -14 0 -16 6 -11 33 9 44 16 67 20 67 2 0 24 -28 49 -62z
m-6244 20 c0 -15 59 -109 78 -125 9 -7 14 -14 11 -16 -2 -2 -22 -17 -45 -35
-45 -34 -54 -33 -54 7 0 14 -11 46 -25 70 -30 53 -31 59 -3 88 23 25 38 30 38
11z m6490 -6 c0 -23 67 -122 83 -122 12 0 -72 -79 -85 -80 -5 0 -8 10 -8 23 0
22 -28 87 -52 119 -11 15 -8 22 17 48 33 34 45 38 45 12z m-3722 -46 c6 -28
-11 -39 -41 -25 -30 14 -32 20 -15 37 18 18 52 11 56 -12z m347 -12 c17 -13
18 -16 5 -24 -19 -12 -27 -12 -51 0 -10 6 -19 17 -19 25 0 19 39 19 65 -1z
m6496 -6 c22 -12 39 -26 39 -32 0 -5 -22 -31 -50 -57 -35 -33 -50 -55 -50 -73
0 -14 -4 -26 -10 -26 -6 0 -10 42 -10 105 0 100 1 105 21 105 12 0 39 -10 60
-22z m-3718 -23 c32 -22 36 -29 27 -45 -6 -11 -15 -20 -21 -20 -5 0 -26 -17
-45 -37 -25 -28 -33 -44 -29 -60 3 -13 1 -23 -5 -23 -6 0 -10 40 -10 105 0
102 1 105 23 105 12 0 39 -11 60 -25z m-2319 -40 c3 -8 3 -21 0 -29 -3 -8 11
-52 30 -97 20 -45 36 -84 36 -85 0 -10 -38 -8 -52 4 -23 19 -55 7 -74 -30 -8
-16 -17 -28 -20 -26 -30 31 -161 235 -154 242 5 5 29 3 58 -4 54 -12 121 0
143 27 15 17 25 17 33 -2z m6486 -38 c3 -25 9 -49 13 -53 5 -5 -8 -30 -39 -72
-1 -2 -22 17 -47 42 -38 40 -49 46 -85 46 -38 0 -42 -2 -42 -25 0 -31 -16 -33
-26 -2 -4 12 -15 28 -25 35 -46 32 7 61 76 42 38 -11 53 -10 86 0 21 7 44 19
51 27 19 23 33 9 38 -40z m-10490 -50 c0 -57 -20 -187 -29 -187 -4 0 -7 8 -7
18 0 9 -4 70 -8 136 l-8 118 26 -18 c21 -16 25 -27 26 -67z m-130 38 c0 -25
-4 -35 -15 -35 -24 0 -29 29 -10 50 24 26 25 26 25 -15z m6823 -82 c-24 -65
-48 -122 -53 -127 -9 -9 -15 19 -25 119 -3 33 -8 67 -11 75 -3 12 5 16 34 16
29 0 73 15 99 33 0 1 -19 -52 -44 -116z m-2908 10 c22 -42 50 -92 63 -111 28
-41 24 -49 -11 -22 -25 20 -67 27 -67 12 0 -12 29 -53 63 -89 25 -27 28 -35
18 -47 -7 -8 -12 -30 -10 -48 5 -89 -36 -100 -81 -23 -16 27 -26 53 -24 57 3
5 -3 16 -14 26 -28 23 -72 111 -72 142 0 14 9 31 20 38 11 7 20 22 20 35 0 26
36 107 47 107 4 0 26 -35 48 -77z m5565 35 c35 -39 37 -48 11 -48 -22 0 -51
35 -51 62 0 25 6 23 40 -14z m-3697 -60 c-2 -5 -13 -8 -23 -8 -22 0 -40 28
-40 61 0 22 2 21 34 -11 19 -19 32 -38 29 -42z m825 -28 c-12 -104 -28 -128
-28 -42 0 54 23 143 34 131 2 -2 -1 -42 -6 -89z m-1034 65 c3 -8 1 -15 -4 -15
-6 0 -10 7 -10 15 0 8 2 15 4 15 2 0 6 -7 10 -15z m2479 -99 c6 -15 4 -17 -10
-10 -10 4 -35 7 -57 6 -32 -1 -37 1 -31 16 4 9 12 30 17 45 l10 28 32 -33 c18
-18 35 -41 39 -52z m-7653 5 c0 -5 -7 -11 -15 -15 -9 -3 -15 0 -15 9 0 8 7 15
15 15 8 0 15 -4 15 -9z m6482 -89 c-3 -63 0 -92 7 -92 17 0 32 -48 25 -76 -12
-47 -56 -17 -68 45 -3 19 -12 42 -20 50 -13 15 -7 51 30 159 2 8 10 12 17 9 9
-3 11 -29 9 -95z m3406 53 c-9 -9 -38 7 -38 20 0 21 24 24 34 4 5 -11 7 -22 4
-24z m-1339 -16 c17 -28 31 -54 31 -58 0 -5 -19 -6 -43 -4 -26 3 -57 -1 -79
-10 -28 -12 -39 -13 -47 -4 -7 9 5 29 42 70 29 31 55 57 58 57 3 0 20 -23 38
-51z m-8939 -29 c0 -5 -9 -10 -20 -10 -11 0 -20 5 -20 10 0 6 9 10 20 10 11 0
20 -4 20 -10z m3144 -16 c10 -26 7 -44 -8 -44 -20 0 -39 27 -32 45 7 20 32 19
40 -1z m6485 -6 c10 -26 6 -38 -12 -38 -16 0 -39 38 -32 50 11 18 35 10 44
-12z m-9697 -34 l68 -26 0 -41 c0 -90 -13 -237 -22 -237 -4 0 -8 16 -8 35 0
74 -21 139 -57 173 -32 29 -73 122 -55 122 4 0 37 -12 74 -26z m6548 6 c0 -13
-5 -18 -15 -14 -12 5 -13 10 -4 20 15 19 19 18 19 -6z m-5712 -42 c35 -39 82
-149 82 -196 0 -37 -3 -44 -27 -53 -16 -6 -39 -16 -53 -22 -57 -24 -55 -28
-54 131 0 81 2 150 2 155 4 14 29 7 50 -15z m3065 -67 c44 -81 46 -94 13 -85
-16 4 -25 1 -30 -11 -11 -30 -27 -4 -25 43 1 26 -2 64 -6 85 -11 56 7 45 48
-32z m5045 57 c-2 -7 -10 -34 -17 -60 -11 -38 -18 -48 -35 -48 -12 0 -16 3
-10 8 17 11 34 48 34 75 0 13 3 27 7 30 11 12 25 8 21 -5z m-6911 -20 c11 -25
-2 -45 -44 -67 -13 -6 -23 -20 -23 -31 0 -20 -32 -44 -44 -33 -3 3 -6 15 -6
25 0 10 -4 18 -10 18 -17 0 -11 28 7 39 10 5 18 17 18 27 0 11 8 18 23 19 12
1 28 7 34 13 18 18 34 14 45 -10z m6448 -20 c-4 -18 -11 -37 -15 -43 -4 -5
-10 -22 -14 -36 -6 -29 -46 -48 -46 -23 0 8 -12 26 -27 40 -28 26 -27 34 7 37
13 1 26 11 31 24 5 14 14 20 23 17 8 -3 17 -1 21 5 14 24 26 10 20 -21z
m-7805 7 c7 -8 22 -15 34 -15 20 0 21 -3 18 -127 -4 -124 -4 -128 -35 -171
l-32 -44 -17 22 c-25 31 -23 37 12 32 28 -4 30 -2 30 27 0 17 -13 58 -29 92
l-29 60 23 15 c12 8 27 26 34 40 10 23 8 29 -18 55 -16 16 -24 29 -16 29 7 0
18 -7 25 -15z m8901 -19 c7 -24 5 -26 -14 -20 -28 8 -27 6 -20 32 7 29 25 23
34 -12z m-6318 11 c3 -8 2 -20 -3 -27 -6 -10 -11 -8 -19 8 -14 27 -14 32 3 32
8 0 16 -6 19 -13z m6507 -7 c6 -10 10 -23 9 -27 -1 -4 -1 -10 0 -13 1 -3 4
-23 6 -45 3 -29 2 -36 -6 -25 -19 29 -59 109 -59 120 0 18 39 11 50 -10z
m-8688 -45 c-6 -30 -12 -32 -28 -11 -20 28 -17 38 9 34 16 -2 21 -9 19 -23z
m8611 -28 c-4 -6 -10 -2 -14 9 -12 31 -9 40 6 20 8 -10 11 -24 8 -29z m-5873
8 c0 -8 -2 -15 -4 -15 -2 0 -6 7 -10 15 -3 8 -1 15 4 15 6 0 10 -7 10 -15z
m2714 -1 c18 -7 22 -49 6 -59 -9 -6 -30 33 -30 56 0 11 3 11 24 3z m2666 -60
c0 -11 -38 16 -44 32 -12 31 7 35 25 5 10 -18 19 -34 19 -37z m-9206 34 c11
-55 13 -78 4 -78 -11 0 -28 45 -28 76 0 30 18 32 24 2z m3586 3 c5 -11 10 -42
10 -69 0 -41 -3 -51 -20 -55 -19 -5 -20 0 -20 69 0 74 10 92 30 55z m6483 -3
c20 -33 9 -122 -15 -124 -16 -2 -18 8 -18 72 0 77 9 91 33 52z m297 -8 c0 -16
-2 -30 -4 -30 -2 0 -6 14 -8 30 -3 17 -1 30 4 30 4 0 8 -13 8 -30z m285 -69
c-28 -56 -32 -58 -61 -36 -18 14 -18 15 15 46 18 18 38 46 44 63 l11 30 8 -26
c7 -21 3 -38 -17 -77z m-915 13 c0 -21 -2 -23 -19 -12 -20 12 -31 44 -23 68 7
20 42 -26 42 -56z m-5690 41 c7 -9 8 -15 2 -15 -5 0 -12 7 -16 15 -3 8 -4 15
-2 15 2 0 9 -7 16 -15z m2818 -26 c3 -37 -17 -67 -38 -54 -11 7 -14 54 -4 80
12 29 39 12 42 -26z m2134 9 c-14 -14 -61 -19 -79 -9 -13 7 -10 10 15 16 18 3
34 11 38 16 3 6 11 5 20 -2 9 -7 11 -16 6 -21z m568 11 c0 -6 -4 -7 -10 -4 -5
3 -10 11 -10 16 0 6 5 7 10 4 6 -3 10 -11 10 -16z m50 0 c0 -5 -4 -9 -10 -9
-5 0 -10 7 -10 16 0 8 5 12 10 9 6 -3 10 -10 10 -16z m660 -14 c0 -29 31 -139
55 -199 7 -16 6 -17 -13 -7 -19 10 -22 9 -22 -7 0 -12 -12 -22 -35 -31 -48
-17 -44 -29 10 -33 l46 -3 -32 -43 c-24 -33 -37 -42 -52 -38 -13 3 -26 -3 -39
-20 -11 -13 -24 -24 -29 -24 -15 0 -10 70 7 88 15 14 15 17 0 27 -18 14 -21
38 -6 66 7 13 7 19 0 19 -6 0 -10 28 -10 68 0 60 3 71 24 92 14 12 28 35 31
51 5 24 12 29 36 29 26 0 29 -3 29 -35z m-1477 -3 c-2 -6 12 -23 29 -37 25
-21 28 -29 18 -35 -8 -5 -19 -5 -25 0 -7 6 -16 5 -22 -1 -8 -8 -21 -4 -47 16
l-36 27 20 29 c17 23 25 27 43 20 12 -5 21 -14 20 -19z m-1583 8 c0 -5 -4 -10
-10 -10 -5 0 -10 5 -10 10 0 6 5 10 10 10 6 0 10 -4 10 -10z m2639 -21 c13
-36 15 -66 4 -55 -12 12 -32 86 -23 86 4 0 13 -14 19 -31z m1417 -61 l27 -77
-38 -56 c-22 -31 -42 -52 -47 -47 -5 5 -12 57 -15 115 -5 91 -3 110 11 133 10
14 22 22 26 18 5 -5 21 -44 36 -86z m-7906 72 c0 -5 -2 -10 -4 -10 -3 0 -8 5
-11 10 -3 6 -1 10 4 10 6 0 11 -4 11 -10z m3129 -37 c0 -36 -2 -43 -9 -27 -7
18 -3 74 6 74 2 0 4 -21 3 -47z m4457 32 c4 -8 16 -15 29 -15 26 0 28 -5 45
-135 9 -62 9 -101 3 -125 l-10 -35 -33 67 c-35 75 -59 163 -60 221 0 37 16 50
26 22z m-7836 -5 c0 -5 -4 -10 -10 -10 -5 0 -10 5 -10 10 0 6 5 10 10 10 6 0
10 -4 10 -10z m6485 0 c3 -5 2 -10 -4 -10 -5 0 -13 5 -16 10 -3 6 -2 10 4 10
5 0 13 -4 16 -10z m-9250 -20 c7 -21 0 -40 -16 -40 -5 0 -9 14 -9 30 0 34 15
40 25 10z m5659 4 c9 -24 7 -28 -9 -14 -17 14 -20 30 -6 30 5 0 12 -7 15 -16z
m1206 -46 l-4 -53 -6 45 c-6 47 -3 73 9 66 3 -2 4 -28 1 -58z m-4897 5 c-8
-20 -41 -15 -53 7 -11 21 -11 21 30 33 16 4 30 -20 23 -40z m6742 2 c16 -22
23 -35 15 -29 -22 17 -57 12 -74 -11 -14 -19 -15 -19 -22 -1 -5 12 -2 21 9 28
10 5 17 13 17 19 0 8 24 41 25 35 1 0 14 -19 30 -41z m524 21 c19 -20 22 -33
19 -78 -2 -29 -8 -52 -13 -50 -6 2 -9 15 -8 29 1 14 -6 33 -16 42 -29 25 -37
81 -11 81 4 0 17 -11 29 -24z m-6473 -35 c-13 -20 -26 -11 -26 16 0 25 1 26
16 11 9 -9 13 -21 10 -27z m8012 0 c20 -64 12 -80 -13 -27 -22 47 -24 66 -6
66 4 0 13 -17 19 -39z m-11113 19 c3 -5 1 -10 -4 -10 -6 0 -11 5 -11 10 0 6 2
10 4 10 3 0 8 -4 11 -10z m7272 -22 c-3 -7 -5 -2 -5 12 0 14 2 19 5 13 2 -7 2
-19 0 -25z m-7473 -19 c8 -51 22 -79 40 -79 15 0 30 -108 17 -125 -5 -5 -12
-26 -17 -45 -4 -19 -9 -38 -10 -42 -1 -5 -2 -16 -3 -25 -3 -34 -21 12 -62 163
l-40 147 28 23 c15 13 31 23 34 24 4 0 9 -19 13 -41z m9813 19 c-3 -8 -6 -5
-6 6 -1 11 2 17 5 13 3 -3 4 -12 1 -19z m-9570 -30 c-3 -8 -6 -5 -6 6 -1 11 2
17 5 13 3 -3 4 -12 1 -19z m9848 -28 c9 -27 15 -60 13 -72 -2 -17 -10 -5 -26
41 -25 72 -26 81 -13 81 5 0 17 -22 26 -50z m166 19 c-9 -22 -10 -22 -10 -3
-1 11 2 24 6 27 12 12 14 0 4 -24z m-439 -1 c-7 -7 -12 -8 -12 -2 0 14 12 26
19 19 2 -3 -1 -11 -7 -17z m-8192 3 c0 -10 -30 -24 -37 -17 -3 3 -2 9 2 15 8
13 35 15 35 2z m7708 -68 c-12 -15 -38 -17 -38 -4 0 5 6 11 13 14 9 3 7 13 -6
38 l-19 34 30 -35 c22 -25 28 -38 20 -47z m-183 16 c14 -26 14 -30 0 -35 -26
-10 -45 4 -45 34 0 51 19 52 45 1z m-7494 18 c-1 -12 -15 -9 -19 4 -3 6 1 10
8 8 6 -3 11 -8 11 -12z m92 -20 c14 -22 13 -24 -5 -36 -24 -15 -26 -13 -34 27
-8 39 16 45 39 9z m8943 -54 c-9 -9 -27 39 -20 55 5 13 9 9 16 -17 5 -18 7
-35 4 -38z m-7072 41 c3 -9 6 -23 6 -32 0 -21 -15 -5 -25 26 -7 25 9 31 19 6z
m-807 -61 c-3 -10 -5 -2 -5 17 0 19 2 27 5 18 2 -10 2 -26 0 -35z m9033 -1 c0
-52 -21 -92 -49 -92 -23 0 -81 29 -81 40 0 23 14 40 34 40 12 0 28 6 35 13 11
10 12 7 7 -15 -11 -47 11 -31 24 17 16 59 30 57 30 -3z m-300 -67 c38 -111 38
-119 -1 -122 -18 -1 -49 -12 -71 -23 -43 -22 -42 -23 -52 48 -6 40 -2 50 40
118 26 41 49 72 51 70 2 -2 17 -43 33 -91z m136 63 c-11 -15 -16 -18 -16 -7 0
16 21 42 28 34 2 -2 -3 -14 -12 -27z m85 9 c-10 -9 -11 -8 -5 6 3 10 9 15 12
12 3 -3 0 -11 -7 -18z m-2798 -50 c-8 -43 -17 -51 -42 -37 -19 10 -25 8 -42
-14 -24 -30 -59 -35 -59 -8 0 23 35 56 85 81 50 24 66 18 58 -22z m2733 -4
c-5 -12 -10 -13 -17 -6 -8 8 -7 18 2 34 12 21 14 22 17 6 2 -10 1 -25 -2 -34z
m730 10 c-11 -11 -17 4 -9 23 7 18 8 18 11 1 2 -10 1 -21 -2 -24z m-3400 16
c8 -13 -37 -52 -48 -41 -4 4 -5 17 -2 30 7 23 38 30 50 11z m3082 -42 c3 -52
-17 -72 -44 -45 -18 18 -8 52 13 43 12 -4 14 1 11 25 -3 19 -1 29 6 27 6 -2
12 -25 14 -50z m-6902 6 c-10 -10 -19 5 -10 18 6 11 8 11 12 0 2 -7 1 -15 -2
-18z m31 5 c-3 -8 -6 -5 -6 6 -1 11 2 17 5 13 3 -3 4 -12 1 -19z m67 -10 c-4
-6 -10 -5 -15 3 -14 22 -10 33 6 19 8 -7 12 -17 9 -22z m-3552 -24 c9 -8 -14
-74 -24 -68 -14 9 -10 74 5 74 8 0 16 -3 19 -6z m10603 -75 c10 -30 0 -33 -13
-4 -6 14 -7 25 -2 25 5 0 12 -9 15 -21z m-1977 -19 c3 -9 -1 -11 -12 -7 -12 5
-16 1 -16 -16 0 -17 -2 -19 -9 -8 -6 9 -6 22 0 34 11 20 30 19 37 -3z m-8979
-62 l-1 -33 -13 30 c-7 17 -16 41 -20 53 l-7 24 21 -21 c13 -13 21 -33 20 -53z
m216 -7 c-21 -81 -29 -83 -40 -8 -7 43 -6 47 13 47 12 0 24 5 27 11 14 21 14
1 0 -50z m2502 17 c-3 -8 -6 -5 -6 6 -1 11 2 17 5 13 3 -3 4 -12 1 -19z m6331
-56 c-5 -2 -8 -15 -8 -28 0 -34 16 -22 24 18 4 22 9 29 17 21 12 -12 1 -65
-12 -57 -6 3 -7 -5 -4 -19 8 -32 -11 -45 -21 -15 -3 13 -15 35 -25 50 -11 14
-16 33 -13 42 7 19 20 21 28 4 3 -7 3 -3 0 9 -3 13 -2 28 3 35 5 9 10 1 13
-22 3 -19 2 -36 -2 -38z m72 41 c-1 -18 -18 -35 -24 -24 -4 6 -4 16 -1 21 7
12 25 13 25 3z m30 -29 c0 -9 -13 -32 -30 -51 -35 -39 -39 -29 -10 27 21 41
40 52 40 24z m-514 -70 c4 -14 2 -30 -4 -36 -11 -11 -12 -10 -26 36 -3 8 -2
17 1 20 13 12 23 5 29 -20z m-8190 -29 c7 -18 -12 -45 -32 -45 -9 0 -14 11
-14 30 0 23 4 30 20 30 11 0 23 -7 26 -15z m9564 -116 c0 -5 -4 -9 -10 -9 -5
0 -10 7 -10 16 0 8 5 12 10 9 6 -3 10 -10 10 -16z m-721 -71 c1 -5 -3 -8 -8
-8 -12 0 -22 30 -14 43 6 10 20 -13 22 -35z"/>
</g>
</svg>
