<?xml version="1.0" standalone="no"?>
<!DOCTYPE svg PUBLIC "-//W3C//DTD SVG 20010904//EN"
 "http://www.w3.org/TR/2001/REC-SVG-20010904/DTD/svg10.dtd">
<svg version="1.0" xmlns="http://www.w3.org/2000/svg"
 width="320pt" height="640pt" viewBox="0 0 800 950"
 preserveAspectRatio="xMidYMid meet">
<metadata>
Created by potrace 1.15, written by Peter Selinger 2001-2017
</metadata>
<g transform="translate(0.000000,1280.000000) scale(0.100000,-0.100000)"
fill="#9CD08F" stroke="none">
<path d="M1531 12781 c-6 -10 -14 -44 -17 -75 -7 -61 -7 -60 -34 -46 -35 19
-100 -56 -100 -116 0 -93 77 -272 175 -409 l52 -73 -34 -16 c-18 -9 -36 -22
-39 -30 -4 -10 -43 16 -132 90 -210 173 -352 264 -412 264 -39 0 -39 -17 0
-87 l30 -53 -23 -9 c-12 -5 -29 -17 -37 -26 -12 -15 -12 -21 3 -47 10 -17 16
-33 14 -35 -3 -2 -28 -7 -56 -12 -28 -4 -54 -11 -57 -14 -25 -25 77 -71 351
-156 l131 -41 0 -37 c-1 -21 3 -62 7 -90 6 -39 4 -53 -4 -53 -7 0 -27 -11 -45
-25 -61 -47 -54 -123 22 -237 32 -47 33 -50 12 -44 -13 4 -62 9 -110 13 -113
8 -121 -5 -53 -78 25 -27 45 -55 43 -62 -3 -7 -26 -26 -52 -44 l-48 -31 31
-17 c24 -12 30 -21 26 -35 -4 -14 1 -20 27 -28 42 -13 142 -29 238 -38 41 -4
83 -10 93 -13 16 -6 16 -8 -7 -20 -37 -20 -41 -43 -12 -67 13 -12 31 -24 38
-26 8 -3 -18 -45 -73 -119 -143 -190 -219 -310 -219 -344 0 -12 8 -16 33 -13
31 3 32 2 37 -44 3 -26 9 -50 13 -54 4 -4 31 17 61 47 l53 55 -1 -35 c-1 -33
1 -36 30 -39 18 -2 48 4 68 12 20 8 36 14 36 13 0 -1 -9 -25 -19 -53 -35 -91
-3 -95 106 -13 36 28 67 49 69 47 1 -2 -1 -21 -6 -43 -24 -101 -5 -183 38
-168 22 8 78 48 121 87 19 17 32 24 29 16 -3 -8 -20 -71 -37 -140 -61 -237
-120 -446 -246 -865 -332 -1106 -391 -1400 -364 -1834 13 -216 8 -468 -16
-736 -8 -93 -33 -408 -55 -700 -22 -291 -54 -667 -70 -835 -77 -787 -75 -734
-74 -1760 1 -860 7 -1155 34 -1580 14 -206 29 -414 35 -470 6 -50 18 -68 -237
349 -77 126 -114 178 -118 166 -4 -12 -13 -5 -40 32 -96 137 -698 878 -706
870 -4 -4 55 -224 100 -374 56 -188 129 -396 210 -602 106 -268 134 -321 275
-512 13 -18 11 -19 -20 -13 -86 15 -279 68 -348 94 -41 16 -76 28 -77 27 -1
-1 2 -27 8 -57 21 -118 117 -260 212 -314 22 -13 109 -45 191 -71 83 -26 171
-58 196 -70 54 -28 110 -87 142 -152 22 -43 109 -299 167 -487 37 -122 112
-198 244 -251 81 -32 77 -34 129 75 22 45 32 59 34 45 15 -100 27 -136 42
-129 9 3 45 12 81 20 100 21 131 49 252 228 190 284 190 284 425 295 143 7
163 11 211 35 63 32 123 90 152 145 11 22 20 42 20 43 0 2 -75 3 -168 3 -125
1 -187 6 -247 19 -44 10 -83 20 -87 22 -3 2 14 34 38 70 65 97 137 260 223
501 40 113 55 143 101 198 90 109 221 297 313 451 48 79 87 147 87 149 0 7
-226 -154 -390 -278 -206 -157 -302 -237 -408 -343 -50 -51 -92 -92 -92 -91 0
9 256 735 316 899 27 73 32 79 84 110 43 26 55 39 55 58 0 19 -7 27 -32 34
l-31 10 39 108 c21 60 43 117 49 128 11 21 149 100 223 127 26 9 47 20 47 24
0 7 -134 29 -180 29 l-30 0 59 167 c162 461 437 1149 616 1538 48 105 165 345
260 535 l173 345 83 0 c70 1 99 6 173 34 121 46 221 115 277 190 107 147 159
280 159 410 0 68 -5 99 -27 161 -3 8 -12 -16 -19 -55 -37 -183 -137 -299 -347
-406 -67 -34 -136 -72 -154 -85 -17 -13 -34 -24 -36 -24 -3 0 17 49 44 109 74
165 183 442 265 672 119 335 283 712 526 1211 111 227 123 248 150 253 16 4
31 5 32 3 2 -1 15 -41 31 -88 34 -104 55 -148 89 -179 36 -34 66 -18 101 53
15 31 29 56 31 56 2 0 27 -15 56 -34 45 -29 56 -42 72 -87 29 -86 85 -191 119
-227 42 -44 75 -41 102 10 11 21 22 38 25 38 3 0 20 -26 39 -57 37 -61 98
-133 112 -133 5 0 12 18 15 40 12 77 22 79 100 16 65 -52 94 -67 94 -48 0 21
-36 125 -75 217 -51 119 -102 209 -145 255 l-30 32 27 -6 c164 -38 216 -30
221 36 3 36 4 37 35 32 63 -12 168 -45 263 -85 169 -70 195 -41 93 109 -34 51
-60 95 -56 98 3 3 27 -4 52 -15 61 -27 67 -26 55 4 -26 69 -77 108 -175 136
l-60 18 57 0 c33 1 60 6 64 13 5 7 -21 38 -71 84 l-78 71 39 13 c63 20 135 65
202 125 72 65 80 89 28 83 l-35 -4 39 43 c45 47 44 71 -1 80 -32 6 -38 18 -14
27 25 9 17 35 -12 42 -16 3 -32 7 -38 8 -5 2 19 18 55 36 74 37 121 76 113 96
-10 26 -111 37 -272 30 -149 -7 -154 -6 -139 11 9 10 18 27 20 38 4 27 -34 31
-113 10 -34 -8 -64 -13 -66 -11 -3 2 0 14 7 26 14 26 5 56 -19 63 -9 2 -49 -4
-87 -14 -38 -10 -72 -18 -76 -18 -3 -1 2 22 13 49 20 54 25 116 9 140 -15 24
-82 14 -158 -24 -39 -20 -73 -40 -77 -46 -3 -5 -10 -10 -14 -10 -5 0 8 39 27
88 26 63 35 103 36 146 1 55 -1 61 -26 75 -25 14 -30 14 -72 -7 l-46 -22 0 69
c0 116 -41 119 -129 9 -25 -31 -47 -56 -48 -55 -1 2 2 20 7 42 15 63 12 151
-5 165 -54 45 -168 -75 -231 -245 l-19 -50 -7 50 c-3 28 -7 100 -7 161 -1 102
-3 112 -24 132 -13 12 -28 22 -34 22 -18 0 -40 -33 -65 -94 -40 -100 -50 -86
-64 83 -10 122 -22 82 -37 -121 -11 -143 -14 -164 -20 -123 -18 123 -89 208
-175 209 -44 1 -47 -1 -59 -34 -9 -23 -11 -61 -7 -110 5 -71 4 -74 -13 -59
-156 134 -216 169 -181 107 8 -15 13 -65 14 -148 0 -119 2 -129 33 -195 47
-103 173 -287 255 -371 l71 -74 -23 -40 -24 -40 -89 120 c-115 155 -320 413
-373 468 -52 55 -107 87 -172 101 -51 10 -88 6 -111 -12 -21 -15 -15 -58 16
-124 l29 -62 -46 15 c-64 19 -141 19 -148 -1 -16 -39 26 -106 144 -235 78 -85
82 -91 82 -135 0 -54 33 -127 86 -191 l34 -42 -83 -4 c-100 -4 -141 -22 -145
-62 -6 -48 17 -82 113 -174 l93 -89 -79 -32 c-94 -39 -141 -75 -137 -105 2
-16 18 -26 69 -43 105 -35 232 -47 367 -34 106 11 115 10 127 -6 11 -15 27
-18 92 -16 43 1 111 11 151 21 l72 19 0 -37 c0 -35 28 -80 50 -80 5 0 -48
-116 -119 -257 -189 -378 -221 -452 -434 -993 -152 -386 -353 -869 -454 -1090
-41 -91 -82 -182 -91 -202 -10 -21 -19 -38 -22 -38 -3 0 -13 33 -22 73 -10 41
-46 129 -83 203 -82 165 -104 230 -112 324 -6 87 11 173 55 261 l28 57 -42
-29 c-118 -81 -190 -241 -201 -449 -7 -123 8 -197 62 -302 62 -123 165 -240
222 -254 13 -4 23 -10 23 -15 0 -4 -72 -149 -159 -321 -275 -539 -447 -958
-691 -1683 -50 -148 -96 -285 -102 -302 -8 -23 -19 -33 -33 -33 -11 0 -51 -7
-89 -15 -38 -8 -71 -14 -72 -12 -1 1 9 36 23 77 28 84 28 130 -1 365 -8 66
-16 171 -17 233 -2 61 -7 112 -11 112 -4 0 -8 -4 -8 -8 0 -5 -32 -64 -71 -132
-141 -247 -246 -481 -264 -587 -5 -29 -1 -60 11 -100 10 -32 18 -61 19 -65 0
-4 -38 -26 -85 -48 -333 -161 -603 -461 -680 -754 -11 -39 -19 -61 -19 -48 -1
13 -8 130 -16 260 -8 130 -19 351 -25 490 -13 328 -13 1566 0 1764 10 148 26
316 110 1133 22 215 43 441 46 503 7 107 8 112 29 112 104 0 345 181 408 307
53 105 79 217 80 348 2 129 -15 196 -65 258 l-23 28 3 -83 c4 -92 -10 -172
-40 -233 -37 -73 -115 -169 -186 -228 -38 -31 -95 -85 -127 -118 l-57 -60 6
68 c4 37 16 136 26 218 36 280 39 353 23 610 -23 378 -8 588 63 854 77 287
181 659 209 751 151 480 283 946 380 1335 92 372 83 341 97 327 21 -21 34 -13
46 32 8 33 20 49 45 65 44 27 51 27 67 -6 l12 -28 10 25 c5 14 7 52 5 85 l-6
60 19 -70 c36 -138 48 -140 52 -7 l3 97 39 -140 c23 -84 41 -171 44 -217 4
-69 7 -78 24 -78 11 0 48 27 83 61 l63 60 21 -35 c44 -71 117 -116 137 -85 8
14 24 -8 24 -36 0 -11 11 -44 25 -73 20 -44 29 -53 47 -50 29 4 69 75 104 186
25 76 26 93 22 212 -3 72 -1 130 4 130 26 0 64 -42 98 -109 l39 -76 0 40 c0
22 -6 73 -13 113 -7 39 -12 72 -10 72 1 0 34 -30 74 -67 77 -72 129 -113 143
-113 5 0 7 13 4 30 -5 23 -2 32 13 40 11 6 32 31 47 57 25 42 27 56 28 150 l0
103 46 0 c36 0 50 -5 70 -26 57 -61 103 -63 133 -6 11 21 27 31 68 41 68 17
144 55 152 76 19 51 -4 90 -86 145 l-60 40 38 0 c57 0 112 18 124 40 14 27 -8
78 -59 133 l-41 44 50 31 c28 17 50 36 50 42 0 20 -55 32 -138 28 -45 -2 -82
-2 -82 -1 0 1 17 12 38 25 20 12 54 38 75 56 68 62 42 102 -76 117 l-58 7 30
19 c64 39 29 63 -117 81 -53 6 -98 12 -100 13 -1 1 11 26 28 56 39 72 40 99 1
99 -49 0 -189 -83 -268 -159 -12 -12 -24 -21 -26 -21 -14 0 -16 92 -3 123 16
39 57 57 128 57 43 0 73 26 84 72 11 55 -8 63 -166 66 -212 5 -284 -25 -353
-147 l-32 -56 -7 58 c-8 61 -51 153 -80 171 -13 8 -26 3 -58 -22 -43 -36 -60
-35 -60 4 0 41 -27 28 -74 -36 l-44 -60 -21 34 c-40 64 -19 96 62 96 41 0 140
46 135 62 -2 7 -21 21 -41 31 -20 10 -37 24 -37 31 0 22 -40 56 -66 56 -36 0
-104 -50 -149 -109 l-38 -50 -26 18 c-34 24 -130 72 -160 80 -15 5 -27 19 -36
45 -17 48 -81 145 -101 153 -23 8 -32 -12 -40 -86 l-7 -64 -13 33 c-18 41 -96
151 -147 208 -60 64 -87 55 -87 -29 0 -26 -4 -39 -14 -39 -20 0 -36 -24 -61
-91 l-22 -61 -6 77 c-4 43 -7 99 -7 124 0 72 -13 82 -53 43 -18 -17 -38 -32
-45 -32 -6 0 -24 16 -39 35 -32 40 -38 42 -52 16z m635 -551 c35 -76 39 -93
39 -163 0 -58 -4 -80 -15 -87 -33 -21 -37 -10 -43 108 -4 64 -13 145 -20 180
-17 76 -12 71 39 -38z m641 -302 c-18 -48 -18 -58 -2 -58 9 0 25 5 37 11 33
18 29 6 -12 -41 -37 -42 -41 -44 -54 -27 -8 10 -20 15 -30 11 -29 -11 -19 42
15 81 31 35 56 47 46 23z m-1009 -136 c32 -39 32 -41 13 -52 -26 -13 -53 14
-69 69 -17 55 -15 70 6 45 9 -12 32 -40 50 -62z m1397 -78 c-61 -54 -150 -110
-224 -141 -71 -29 -81 -29 -81 1 0 21 9 27 63 45 34 12 112 48 172 80 61 32
112 59 115 60 3 0 -17 -20 -45 -45z m1190 -3001 c63 -32 115 -61 115 -64 0 -4
-20 -10 -44 -13 -40 -6 -46 -4 -77 26 -19 19 -54 50 -78 71 -25 20 -42 37 -38
37 4 0 59 -26 122 -57z m1366 -419 l24 -27 -65 7 c-36 3 -92 12 -125 19 l-60
12 85 6 c47 3 92 6 101 7 8 1 26 -10 40 -24z m-3349 -5596 c-14 -40 -26 -75
-28 -76 -8 -11 -46 13 -59 37 -14 28 -14 28 43 69 31 22 60 41 63 41 4 1 -4
-32 -19 -71z m-151 -83 c4 -17 7 -47 8 -68 1 -28 9 -46 31 -68 29 -29 29 -31
15 -67 -8 -20 -42 -118 -75 -217 -58 -169 -226 -651 -290 -830 -39 -109 -186
-535 -195 -563 -7 -23 -52 -79 -58 -71 -2 2 -9 35 -16 74 -28 160 -126 411
-296 761 l-92 191 64 6 c100 10 187 61 308 182 109 109 145 161 271 399 93
176 145 238 229 277 72 34 88 33 96 -6z m-130 -1362 c-108 -137 -171 -220
-211 -281 -18 -29 -35 -50 -37 -49 -2 2 20 75 48 163 27 87 51 163 52 168 2 7
195 90 219 95 4 0 -28 -43 -71 -96z m-617 -525 c18 -26 13 -38 -19 -38 -27 0
-36 17 -23 43 12 23 24 22 42 -5z m91 -108 c3 -9 -5 -41 -19 -71 l-24 -54 -6
70 c-4 39 -9 83 -12 100 l-4 29 30 -29 c16 -16 32 -36 35 -45z"/>
</g>
</svg>
