<?xml version="1.0" standalone="no"?>
<!DOCTYPE svg PUBLIC "-//W3C//DTD SVG 20010904//EN"
 "http://www.w3.org/TR/2001/REC-SVG-20010904/DTD/svg10.dtd">
<svg version="1.0" xmlns="http://www.w3.org/2000/svg"
 width="320t" height="700pt" viewBox="0 0 694.000000 1280.000000"
 preserveAspectRatio="xMidYMid meet">
<metadata>
Created by potrace 1.15, written by Peter Selinger 2001-2017
</metadata>
<g transform="translate(0.000000,1280.000000) scale(0.100000,-0.100000)"
fill="#9CD08F" stroke="none">
<path d="M5715 12767 c-44 -19 -90 -39 -102 -45 -39 -21 -53 -15 -53 23 0 19
-2 35 -4 35 -2 0 -74 -45 -160 -100 -86 -55 -158 -100 -161 -100 -3 0 -5 10
-5 23 -1 53 -16 52 -82 -10 -36 -33 -100 -87 -144 -118 -43 -32 -105 -81 -136
-108 l-58 -49 0 46 c0 53 -18 61 -44 22 -31 -48 -247 -276 -262 -276 -8 0 -14
7 -14 15 0 27 -15 15 -50 -42 -50 -81 -261 -292 -300 -299 -18 -4 -30 -13 -30
-22 0 -8 -40 -99 -89 -201 -103 -215 -119 -267 -127 -411 -8 -130 12 -254 55
-345 l30 -65 -23 -23 c-13 -12 -27 -35 -30 -52 -4 -16 -39 -104 -77 -194 -110
-259 -182 -493 -248 -811 -48 -231 -63 -319 -70 -415 l-6 -90 -49 95 c-192
372 -354 556 -562 637 -58 22 -84 26 -164 26 -108 0 -186 -24 -285 -87 -116
-75 -287 -279 -356 -426 -22 -47 -46 -96 -52 -110 -11 -22 -21 -26 -87 -32
-165 -17 -264 -65 -399 -193 -103 -98 -157 -171 -141 -190 10 -12 -109 -181
-197 -279 -55 -62 -46 -76 31 -47 75 28 86 26 49 -6 -40 -35 -160 -185 -199
-247 -16 -26 -64 -90 -106 -142 -43 -53 -78 -99 -78 -105 0 -16 19 -10 52 20
38 33 90 61 113 61 21 0 19 -5 -14 -53 -46 -68 -79 -140 -106 -233 -28 -97
-46 -194 -37 -208 3 -5 24 13 48 40 23 27 45 46 48 43 3 -3 -3 -52 -15 -110
-11 -57 -23 -146 -26 -198 -6 -92 -6 -93 14 -82 12 6 32 24 46 41 14 16 28 30
30 30 2 0 4 -42 3 -92 -1 -111 10 -199 29 -224 12 -17 16 -14 51 43 27 43 46
63 64 67 14 2 71 43 126 90 56 47 106 86 112 86 12 0 42 -72 42 -100 0 -13
-32 -42 -97 -89 -54 -38 -123 -95 -153 -126 -30 -32 -85 -77 -122 -102 -38
-24 -68 -49 -68 -54 0 -7 21 -10 55 -7 30 1 55 1 55 -1 0 -2 -31 -41 -70 -86
-38 -45 -79 -103 -91 -129 -11 -25 -47 -73 -80 -107 -58 -59 -71 -83 -46 -92
12 -4 -72 -182 -135 -288 -29 -48 -36 -79 -17 -79 6 0 33 18 60 41 27 22 49
37 49 32 0 -4 -16 -31 -36 -58 -45 -61 -162 -298 -170 -343 -9 -49 6 -57 46
-22 59 50 59 42 2 -80 -17 -36 -44 -89 -61 -118 -27 -45 -29 -53 -16 -59 10
-3 29 4 47 17 16 12 32 20 34 17 3 -3 -4 -32 -16 -66 -23 -71 -35 -143 -27
-165 5 -14 11 -13 51 1 59 22 66 15 77 -84 4 -43 8 -79 8 -80 1 -2 8 -3 16 -3
8 0 24 14 37 30 21 29 114 100 131 100 4 0 7 -25 7 -56 l0 -57 53 50 c28 27
73 63 99 81 25 17 65 53 87 79 40 46 42 47 56 29 8 -11 15 -27 15 -36 0 -18
27 -60 39 -60 5 0 16 21 26 48 28 72 174 292 195 292 5 0 11 -14 15 -30 9 -39
20 -30 60 46 17 32 68 110 115 174 47 63 92 126 101 140 l17 25 18 -37 c21
-44 34 -49 34 -13 0 37 34 133 95 268 65 143 84 175 95 157 4 -7 15 -10 23 -7
26 10 40 112 40 292 0 250 -18 308 -146 455 -51 58 -63 78 -56 92 18 33 174
191 253 255 87 70 227 143 313 163 29 6 84 12 123 12 102 1 175 -37 288 -151
232 -232 386 -488 492 -816 27 -84 33 -125 42 -255 8 -131 6 -1873 -5 -4170
-1 -206 0 -530 3 -720 4 -302 -6 -767 -17 -757 -2 3 -10 46 -19 98 -22 139
-78 293 -175 489 -107 213 -158 299 -354 595 -175 265 -152 239 -838 938 -533
543 -704 721 -856 892 -233 261 -288 339 -446 629 -53 98 -113 203 -132 233
-81 128 -242 514 -297 715 -19 69 -55 225 -80 345 -55 261 -177 643 -207 643
-35 0 -60 -649 -40 -1029 19 -353 59 -609 151 -966 123 -474 210 -679 434
-1020 129 -196 191 -269 435 -517 161 -165 247 -243 350 -320 75 -57 213 -166
307 -244 93 -77 197 -160 230 -184 145 -107 386 -324 520 -470 247 -269 573
-679 645 -811 8 -14 32 -52 54 -85 59 -88 279 -528 306 -613 30 -92 55 -110
45 -31 -4 30 -14 69 -22 88 -41 99 7 65 63 -44 21 -41 41 -74 46 -74 19 0 -22
100 -73 175 -45 68 -45 72 4 25 56 -53 102 -116 111 -153 4 -14 15 -33 26 -43
18 -16 19 -16 26 2 12 29 8 176 -5 201 -7 13 -30 28 -52 34 -45 14 -107 74
-138 136 -11 21 -45 108 -75 193 -115 323 -200 529 -274 665 -80 148 -219 376
-256 422 -13 15 -50 66 -82 113 -100 145 -350 472 -452 591 -54 62 -282 300
-508 529 -500 506 -814 865 -1025 1172 -65 95 -361 598 -386 656 -85 202 -136
393 -245 930 -39 193 -49 261 -47 321 l3 76 26 -80 c14 -44 49 -190 78 -325
79 -373 85 -398 147 -552 69 -175 148 -337 296 -614 254 -475 330 -571 942
-1193 219 -224 449 -462 511 -531 63 -69 188 -199 280 -290 227 -223 337 -354
470 -555 334 -505 484 -835 530 -1166 29 -216 58 -323 97 -369 7 -8 41 -39 75
-68 55 -47 63 -51 72 -35 9 17 11 17 31 -3 18 -18 21 -34 24 -125 3 -97 17
-159 38 -159 4 0 8 62 9 138 0 75 4 299 8 497 l7 360 30 65 c17 36 64 119 104
185 113 186 143 266 210 560 54 235 147 512 253 755 46 107 97 227 112 265 37
94 221 469 282 574 156 270 308 475 618 831 374 430 421 494 657 883 154 254
241 427 357 712 34 83 80 191 101 240 42 95 149 400 311 885 54 162 105 314
114 337 21 59 32 208 15 218 -29 18 -66 -36 -180 -261 -215 -425 -438 -832
-574 -1049 -45 -71 -102 -166 -125 -210 -52 -95 -214 -344 -280 -430 -25 -33
-111 -137 -191 -230 -80 -94 -190 -226 -244 -295 -55 -69 -193 -240 -307 -381
-381 -470 -534 -683 -723 -1004 -93 -158 -201 -356 -241 -439 -180 -376 -322
-841 -361 -1184 -3 -34 -10 -65 -14 -67 -18 -11 -23 519 -22 2047 1 1065 5
1651 12 1695 39 254 135 528 317 903 111 229 181 350 216 375 38 27 61 18 144
-59 95 -87 171 -140 279 -195 113 -56 189 -75 314 -75 89 0 115 4 171 26 36
14 110 36 165 48 98 23 145 40 174 65 8 7 62 37 120 67 58 29 144 79 191 111
51 34 126 72 188 96 56 21 110 46 119 55 15 15 14 17 -16 28 -18 7 -32 15 -32
18 0 3 21 22 48 42 26 20 69 59 96 87 l49 50 -25 10 c-14 5 -51 14 -82 20 -77
14 -80 18 -51 53 14 16 25 33 25 38 0 11 -27 20 -63 20 -35 0 -207 44 -239 61
-20 11 -20 11 2 34 l22 24 -38 10 c-54 14 -198 31 -265 31 -69 0 -89 7 -89 30
0 12 -10 19 -32 22 -49 8 -383 -11 -413 -22 -26 -10 -27 -9 -20 17 12 48 17
103 10 103 -3 0 -25 -11 -48 -24 -23 -13 -96 -43 -162 -66 -66 -23 -141 -53
-167 -66 -26 -13 -53 -24 -60 -24 -18 0 -174 -137 -224 -196 -59 -70 -100
-140 -119 -204 -24 -80 -48 -130 -114 -233 -32 -51 -80 -135 -106 -187 -56
-111 -222 -495 -255 -590 -13 -36 -40 -101 -61 -145 l-38 -80 5 90 c18 316 26
750 31 1725 l5 1105 36 90 c175 450 492 753 864 829 144 30 217 14 275 -61 50
-62 59 -89 40 -111 -9 -10 -30 -47 -46 -82 -119 -265 -113 -436 24 -685 30
-55 69 -128 85 -163 17 -35 36 -65 43 -67 7 -2 24 -6 39 -9 19 -4 34 -19 48
-46 11 -22 39 -61 63 -88 24 -26 53 -64 65 -83 12 -20 32 -41 46 -47 13 -6 49
-44 79 -84 101 -137 217 -217 217 -150 0 11 7 5 20 -16 11 -18 41 -46 66 -61
59 -38 184 -83 232 -85 l37 -1 3 53 c2 28 7 52 12 52 4 0 34 -10 65 -22 l56
-21 22 21 c12 11 34 31 48 44 14 13 28 30 31 38 4 12 13 12 62 0 74 -17 88 -6
56 45 -18 29 -24 59 -30 142 -4 57 -13 110 -19 116 -25 25 -12 37 44 37 58 0
64 6 41 43 -8 12 -19 56 -26 97 -15 105 -26 142 -55 184 -22 32 -22 36 -7 36
48 0 54 57 18 153 -28 74 -73 166 -92 188 -12 13 -8 19 32 47 25 18 44 37 42
43 -2 6 -21 17 -42 24 -48 17 -70 37 -168 157 -43 54 -89 103 -101 109 -12 7
-24 13 -26 15 -2 2 11 19 28 39 38 44 32 59 -21 50 -36 -6 -46 -3 -121 49
-152 104 -312 151 -487 144 -97 -4 -99 -4 -176 -52 -49 -29 -83 -44 -90 -39
-7 4 -39 32 -74 61 -94 80 -130 95 -236 100 -157 7 -328 -50 -511 -171 -206
-135 -361 -304 -478 -520 -26 -48 -49 -87 -50 -85 -2 2 16 120 40 263 79 475
157 743 321 1099 l67 146 181 0 c100 1 226 5 281 10 92 8 108 13 210 64 118
58 288 179 438 310 48 42 87 83 87 92 0 41 194 284 263 328 30 20 35 36 12 36
-19 0 -19 24 -1 39 15 13 54 103 101 234 15 42 38 93 51 113 29 43 29 44 3 44
-16 0 -19 4 -14 18 5 9 27 70 50 135 31 87 53 130 84 167 31 37 40 55 36 72
-7 27 49 127 108 193 45 52 46 64 7 71 -24 5 -31 13 -36 41 -8 41 -26 38 -35
-6 -10 -46 -24 -58 -39 -31 -13 25 -5 89 15 117 13 17 14 17 20 1 4 -10 13
-18 21 -18 17 0 18 33 3 61 -10 19 -12 19 -35 4 -19 -12 -25 -13 -28 -3 -13
42 -17 48 -33 48 -10 0 -54 -15 -98 -33z m-59 -93 c-45 -39 -62 -44 -46 -13
12 22 71 61 80 53 3 -3 -13 -21 -34 -40z m74 -1 c0 -13 3 -14 12 -5 21 21 38
13 38 -18 0 -16 5 -30 10 -30 12 0 13 -37 2 -44 -5 -3 -39 -7 -76 -10 -52 -3
-76 -10 -104 -30 -42 -30 -52 -26 -52 17 0 38 13 62 29 53 5 -4 35 14 66 39
60 49 75 54 75 28z m-235 -99 c-7 -32 -23 -81 -34 -107 -25 -58 -25 -57 -6
-57 27 0 16 -18 -63 -102 -43 -46 -83 -91 -89 -102 -10 -19 -165 -117 -172
-110 -3 2 15 23 38 47 43 42 240 330 301 440 18 32 34 56 36 55 2 -2 -3 -31
-11 -64z m-195 -36 c-58 -69 -70 -78 -70 -52 0 19 93 114 111 114 6 0 -13 -28
-41 -62z m110 10 c-15 -28 -203 -308 -206 -305 -1 1 5 40 13 87 l14 85 91 90
c85 83 116 98 88 43z m115 -38 c-24 -46 -28 -32 -8 26 13 36 18 43 21 27 2
-12 -4 -36 -13 -53z m228 5 c-19 -13 -178 -85 -189 -85 -2 0 -4 4 -4 9 0 22
142 90 190 91 l24 0 -21 -15z m34 -40 c-15 -13 -46 -29 -70 -36 -23 -6 -75
-26 -116 -45 -127 -58 -90 -29 50 40 141 70 184 83 136 41z m-607 -128 c-16
-110 -122 -316 -219 -427 -30 -34 -30 -32 15 65 25 55 59 134 76 175 16 41 45
102 63 135 19 33 42 89 52 125 16 58 18 61 21 32 2 -18 -2 -66 -8 -105z m680
114 c0 -6 -29 -29 -65 -52 -35 -24 -63 -44 -61 -46 2 -2 22 4 45 13 47 19 58
15 42 -14 -18 -34 -65 -61 -131 -76 l-63 -15 39 40 c21 21 36 39 32 39 -3 0
-35 -13 -71 -30 -37 -16 -72 -30 -78 -30 -6 0 -18 -9 -27 -20 -10 -11 -35 -23
-57 -27 -37 -6 -39 -5 -26 10 40 49 294 180 419 216 1 1 2 -3 2 -8z m-720 -12
c0 -6 -24 -66 -54 -133 -29 -66 -57 -132 -61 -146 -11 -37 -112 -236 -143
-283 -20 -30 -23 -42 -14 -45 10 -3 2 -17 -24 -43 -21 -22 -41 -39 -46 -39
-12 0 57 189 121 327 60 133 147 295 184 345 21 29 37 36 37 17z m396 -35 c-3
-9 -6 -18 -6 -20 0 -2 -7 -4 -15 -4 -13 0 -14 4 -5 20 13 24 35 27 26 4z
m-618 -101 c-41 -54 -80 -108 -87 -120 -13 -26 -31 -30 -31 -8 0 15 50 104 82
145 23 30 99 92 105 86 3 -3 -29 -49 -69 -103z m87 15 c-51 -88 -104 -201
-169 -358 l-56 -135 6 85 c7 111 21 189 37 211 6 9 34 48 61 86 66 92 135 173
147 173 6 0 -6 -28 -26 -62z m716 -96 c-13 -9 -121 -68 -240 -129 -297 -155
-248 -149 82 10 81 38 150 67 154 63 17 -17 -86 -248 -121 -271 -45 -30 -189
-56 -336 -61 -83 -3 -164 -12 -189 -20 -25 -8 -54 -14 -65 -14 -19 1 -17 4 12
29 18 15 68 47 112 72 99 54 106 72 9 24 -75 -38 -119 -57 -119 -51 0 2 52 45
116 96 63 51 113 94 110 97 -6 6 -44 -19 -153 -104 -45 -35 -84 -63 -87 -63
-28 0 54 72 202 178 61 44 200 112 226 112 21 -1 21 -1 1 -16 -11 -8 -47 -30
-80 -47 -77 -42 -47 -48 34 -7 34 16 78 34 99 38 30 7 37 13 35 30 -2 18 5 22
50 31 28 5 61 12 72 14 11 3 38 5 60 5 l40 1 -24 -17z m-1077 -54 c-57 -98
-159 -240 -162 -226 -8 40 127 234 166 238 2 0 0 -6 -4 -12z m26 -72 c-47
-106 -96 -272 -132 -449 l-33 -162 -3 145 c-3 158 6 217 44 300 27 59 144 243
151 237 2 -2 -10 -34 -27 -71z m87 -78 c-7 -184 -24 -254 -103 -415 -88 -177
-123 -211 -109 -105 30 221 101 466 180 623 14 27 28 49 32 49 3 0 3 -69 0
-152z m-401 -141 c-36 -47 -78 -145 -115 -267 -18 -58 -35 -112 -38 -120 -7
-17 -41 80 -42 119 -1 42 70 161 139 232 72 74 97 90 56 36z m100 -74 c11
-109 -2 -338 -25 -426 -30 -113 -136 -306 -157 -284 -4 3 5 39 19 79 26 73 31
95 28 133 -2 30 -16 2 -31 -65 -7 -30 -15 -59 -19 -65 -7 -13 -40 176 -40 238
-1 26 6 80 15 120 24 106 125 339 141 324 2 -3 -2 -38 -11 -78 -14 -68 -19
-133 -17 -201 1 -40 21 -35 21 5 0 64 47 287 60 287 5 0 12 -30 16 -67z m1045
1 c-18 -8 -123 -33 -232 -54 -231 -46 -289 -60 -419 -101 -52 -17 -102 -32
-110 -35 -30 -8 74 75 124 99 29 14 88 33 133 42 80 16 451 62 508 63 l30 0
-34 -14z m9 -39 c0 -9 -117 -63 -215 -99 -55 -20 -199 -65 -320 -102 -121 -36
-247 -76 -280 -89 -32 -13 -61 -23 -63 -20 -2 2 1 19 8 39 10 31 22 40 103 80
157 76 324 124 540 156 78 11 156 24 172 29 35 11 55 13 55 6z m63 -47 c-1
-15 -20 -66 -42 -114 -23 -48 -41 -94 -41 -104 0 -12 -14 -20 -46 -27 -45 -11
-46 -11 -39 14 l6 25 -26 -20 c-33 -26 -77 -36 -122 -27 l-36 7 44 25 c24 15
60 39 80 55 20 15 41 28 45 28 14 0 160 137 153 144 -3 4 -40 -21 -81 -54
-106 -84 -243 -168 -303 -185 -27 -8 -111 -22 -185 -30 -177 -20 -300 -42
-344 -60 -20 -9 -36 -11 -36 -6 0 17 128 72 289 123 412 131 497 161 569 198
90 46 118 48 115 8z m-816 -35 c-21 -21 -27 -15 -16 16 7 19 12 22 21 13 9 -9
8 -16 -5 -29z m-721 -350 c-50 -227 -60 -325 -43 -445 7 -54 10 -98 7 -98 -4
0 -17 26 -30 58 -19 47 -24 82 -28 203 -6 208 17 317 95 448 26 43 28 44 31
20 2 -14 -13 -98 -32 -186z m132 87 c35 -108 45 -184 40 -293 -6 -115 -21
-164 -86 -271 -39 -64 -51 -104 -36 -118 3 -4 20 -2 37 3 17 5 86 16 152 24
158 21 291 48 447 91 114 31 176 53 302 108 100 44 -33 -61 -195 -154 -181
-103 -235 -122 -372 -128 -122 -5 -299 11 -374 33 -24 7 -43 12 -44 12 0 -1
-2 -11 -4 -22 -2 -11 -13 -40 -24 -65 -11 -25 -40 -92 -66 -150 -97 -220 -135
-320 -173 -460 -70 -255 -111 -449 -142 -675 -51 -363 -51 -434 -2 -332 11 23
45 94 76 157 184 380 589 686 938 707 92 6 99 5 143 -21 61 -36 109 -80 135
-122 39 -62 15 -58 -59 11 -88 80 -120 95 -206 95 -262 0 -575 -183 -767 -448
-80 -111 -175 -267 -189 -311 -6 -20 -21 -58 -34 -86 -46 -99 -47 -117 -55
-1205 -4 -569 -14 -1236 -21 -1483 -10 -340 -10 -450 -1 -459 20 -20 49 19 78
106 38 113 150 394 223 559 33 76 61 141 61 144 0 11 116 212 161 278 68 100
119 150 119 116 0 -5 10 -11 22 -13 25 -4 37 -28 14 -28 -9 0 -26 6 -37 13
-18 11 -24 8 -50 -23 -34 -40 -275 -513 -344 -675 -57 -134 -122 -322 -172
-498 l-38 -132 3 -325 c5 -563 6 -1600 2 -2290 -4 -560 -2 -716 14 -989 22
-396 20 -480 -18 -576 -30 -75 -96 -195 -107 -195 -11 0 -21 840 -15 1196 12
617 25 3635 17 3829 -9 209 -17 246 -96 452 -45 115 -150 316 -216 415 -49 72
-262 302 -340 368 -96 79 -198 98 -352 64 -127 -28 -238 -90 -360 -201 -119
-109 -224 -223 -238 -259 -10 -29 -39 -32 -39 -5 0 27 61 101 172 207 126 122
242 207 358 263 l95 46 110 0 c109 0 111 0 195 -42 47 -23 113 -64 146 -92 75
-61 230 -239 292 -335 62 -96 184 -333 222 -432 17 -44 40 -91 52 -104 l21
-23 10 24 c13 36 2 1959 -12 2084 -15 124 -73 305 -145 447 -29 57 -98 172
-154 257 -97 148 -114 181 -92 181 6 0 10 -6 10 -14 0 -7 11 -21 24 -30 57
-37 319 -494 328 -572 5 -42 26 -40 37 3 5 21 17 110 26 198 24 236 48 365
116 615 98 361 149 505 245 689 24 47 44 93 44 103 0 10 4 18 8 18 12 0 58 86
87 164 79 209 99 429 59 631 -10 51 12 16 34 -55z m1232 -32 c-37 -30 -226
-123 -300 -147 -115 -38 -302 -79 -475 -106 -93 -14 -194 -32 -222 -39 -29 -8
-53 -11 -53 -8 0 13 94 71 170 106 135 62 279 95 620 141 155 21 228 42 247
72 12 18 19 21 27 13 8 -8 4 -17 -14 -32z m-46 22 c-16 -16 -185 -47 -322 -60
-241 -22 -331 -45 -516 -127 -54 -24 -101 -42 -103 -39 -11 11 40 66 92 101
157 104 293 130 685 134 117 1 171 -2 164 -9z m-1236 -128 c5 -119 -9 -208
-56 -366 -24 -82 -27 -87 -34 -60 -18 62 -11 216 15 344 13 69 30 145 37 169
18 69 33 36 38 -87z m397 118 c9 -14 -13 -50 -30 -50 -18 0 -20 31 -3 48 15
15 25 15 33 2z m815 -99 c0 -21 -135 -171 -169 -187 -29 -14 -68 -17 -234 -17
-180 0 -220 4 -205 18 2 3 43 12 90 20 100 17 332 91 438 139 41 19 76 35 78
35 1 1 2 -3 2 -8z m-683 -197 c-3 -3 -12 -4 -19 -1 -8 3 -5 6 6 6 11 1 17 -2
13 -5z m-177 -34 c0 -5 -7 -10 -16 -10 -8 0 -12 5 -9 10 3 6 10 10 16 10 5 0
9 -4 9 -10z m568 -19 c21 -13 -29 -27 -180 -51 -280 -44 -413 -72 -542 -115
-74 -25 -137 -45 -140 -45 -19 0 22 45 77 83 85 61 179 106 251 122 69 15 512
20 534 6z m-653 -11 c-3 -5 -13 -10 -21 -10 -8 0 -12 5 -9 10 3 6 13 10 21 10
8 0 12 -4 9 -10z m-95 -43 c0 -17 -47 -43 -57 -33 -8 8 32 46 48 46 5 0 9 -6
9 -13z m680 -27 c-95 -52 -404 -134 -618 -164 -132 -19 -152 -19 -152 -6 0 13
48 33 193 81 89 30 172 47 345 73 273 41 278 41 232 16z m-2030 -1142 c30 -14
69 -38 85 -52 28 -23 23 -22 -55 12 -84 36 -87 37 -215 37 l-130 0 -74 -39
c-177 -95 -370 -335 -416 -518 -10 -37 -24 -73 -33 -80 -13 -11 -15 -8 -10 32
19 168 256 489 427 579 95 50 142 61 261 58 90 -2 113 -6 160 -29z m2494 -25
c121 -30 294 -112 254 -121 -9 -2 -68 10 -130 27 -165 45 -296 58 -409 42 -50
-7 -92 -11 -95 -9 -5 6 100 58 151 74 46 15 139 10 229 -13z m-2529 -24 c98
-37 205 -154 347 -379 139 -222 174 -297 220 -475 29 -117 31 -129 39 -440 8
-318 10 -1725 2 -1673 -5 34 -126 277 -190 384 -89 147 -251 328 -374 419
-221 163 -413 177 -627 47 -111 -67 -191 -132 -343 -279 l-149 -145 -98 7
c-53 4 -100 9 -104 11 -4 3 21 43 57 89 35 46 81 120 103 165 l39 80 13 -30
c15 -37 48 -80 61 -80 5 0 9 9 9 20 0 21 189 400 200 400 4 0 12 -18 19 -40 6
-22 16 -40 21 -40 15 0 38 42 46 85 4 22 13 49 20 60 21 33 73 200 79 257 4
29 8 64 11 77 l5 24 28 -27 c50 -48 52 -45 70 114 6 52 21 129 33 170 26 87
30 224 9 307 -15 61 -87 146 -184 218 -99 74 -97 71 -97 116 0 83 120 299 225
403 164 165 341 218 510 155z m2500 -65 c28 -3 102 -18 165 -34 63 -16 140
-34 170 -40 30 -6 62 -15 70 -20 38 -23 -14 -20 -183 13 -101 20 -227 42 -280
48 -102 12 -298 8 -332 -6 -18 -8 -18 -7 -7 8 31 37 205 51 397 31z m110 -82
c61 -11 118 -23 127 -27 93 -37 -305 -67 -472 -36 -81 16 -153 46 -148 63 8
22 57 27 223 23 102 -2 200 -11 270 -23z m-605 -36 c0 -2 -11 -28 -24 -57 -69
-152 -74 -363 -12 -564 20 -66 39 -129 42 -140 8 -32 -56 73 -95 155 l-36 75
0 145 c0 115 4 156 19 200 23 68 85 190 97 190 5 0 9 -2 9 -4z m230 -47 c92
-25 264 -35 344 -20 33 6 62 9 64 6 3 -3 -28 -20 -69 -39 -154 -71 -264 -68
-370 10 -53 39 -73 64 -51 64 4 0 41 -10 82 -21z m669 -9 c23 -11 56 -31 73
-45 31 -26 158 -179 158 -190 0 -4 -21 9 -47 28 -48 34 -323 177 -343 177 -32
0 2 -25 88 -66 104 -49 222 -122 222 -137 0 -12 -40 -4 -275 54 -110 27 -209
48 -220 47 -43 -7 444 -148 513 -148 25 -1 26 -1 7 -12 -29 -17 -277 -23 -350
-8 -33 6 -69 13 -80 14 -11 2 -38 7 -60 11 -31 6 -37 5 -29 -5 17 -18 138 -47
250 -60 55 -7 100 -13 102 -14 6 -6 -149 -48 -215 -58 -64 -10 -82 -9 -160 10
-48 12 -117 32 -153 45 l-65 22 -47 110 c-52 120 -56 134 -33 115 8 -7 15 -18
15 -25 0 -19 29 -40 116 -84 84 -42 127 -53 105 -27 -7 8 -24 17 -39 21 -15 3
-58 25 -97 48 l-70 42 105 6 c112 7 142 16 345 107 103 47 123 49 184 22z
m-865 -25 c14 -56 33 -686 21 -673 -3 3 -24 68 -47 144 -40 133 -42 145 -42
279 -1 122 2 149 22 208 25 72 36 82 46 42z m88 -180 c14 -61 21 -128 22 -210
1 -106 -2 -128 -24 -185 l-25 -65 -6 225 c-4 124 -10 263 -13 310 -5 83 -5 84
10 50 9 -19 25 -75 36 -125z m44 35 c8 -36 13 -92 12 -125 0 -59 -1 -58 -13
30 -7 50 -19 115 -29 147 -20 70 -20 81 1 43 9 -16 22 -59 29 -95z m-3051
-169 c3 -5 -41 -24 -97 -41 -110 -34 -218 -85 -322 -150 -35 -22 -67 -40 -72
-40 -4 0 16 25 46 55 111 112 258 184 377 185 34 0 64 -4 68 -9z m4040 -31
c19 -7 36 -31 65 -92 21 -46 37 -85 34 -87 -2 -2 -32 23 -67 56 -34 33 -81 70
-105 82 -49 25 -53 38 -14 44 50 7 60 7 87 -3z m-791 -26 c9 -22 -3 -32 -14
-14 -12 19 -12 30 -1 30 5 0 12 -7 15 -16z m636 6 c0 -5 38 -35 84 -65 85 -56
113 -81 103 -91 -3 -3 -18 1 -34 9 -38 20 -213 73 -290 89 -35 6 -60 15 -55
19 34 31 192 63 192 39z m-682 -47 c63 -150 67 -201 36 -419 -14 -104 -27
-190 -29 -192 -1 -1 -5 118 -8 265 -5 236 -11 304 -33 376 -12 38 15 14 34
-30z m-3233 1 c-60 -53 -207 -122 -302 -142 -130 -26 -124 -1 17 66 109 51
271 111 300 111 24 0 23 -1 -15 -35z m3189 -70 c21 -147 28 -292 20 -396 l-7
-93 -13 48 c-35 135 -49 576 -18 544 2 -2 10 -48 18 -103z m-2962 65 c113 -58
205 -189 214 -307 l5 -57 -35 70 c-19 39 -80 125 -135 193 -55 67 -98 122 -95
122 2 0 24 -10 46 -21z m3218 11 c19 -5 84 -14 144 -20 120 -12 198 -28 326
-67 164 -49 284 -121 234 -140 -20 -8 -180 20 -334 57 -203 50 -430 140 -430
170 0 12 16 12 60 0z m-3268 -62 c75 -77 157 -186 192 -255 14 -29 26 -55 26
-58 0 -14 -152 99 -208 154 -99 97 -135 174 -100 209 19 19 24 16 90 -50z
m3298 -31 c100 -46 177 -70 352 -112 81 -19 162 -41 180 -49 l33 -13 -39 -8
c-109 -22 -317 22 -430 90 -32 19 -61 35 -64 35 -3 0 -16 9 -28 21 -13 12 -24
16 -28 10 -7 -11 1 -18 54 -56 84 -59 243 -122 319 -128 17 -1 31 -5 31 -9 0
-31 -189 -5 -276 37 -64 31 -165 122 -198 179 -14 25 -26 47 -26 50 0 7 24 -2
120 -47z m-332 -377 c11 -52 23 -107 27 -122 18 -70 -49 12 -96 116 -19 43
-21 62 -16 145 3 61 13 121 28 166 l23 70 7 -140 c4 -77 16 -183 27 -235z
m-3253 324 c-65 -49 -345 -193 -345 -176 0 4 34 32 75 62 73 54 230 129 270
129 l20 0 -20 -15z m3576 -126 c48 -96 69 -183 69 -295 0 -89 -17 -233 -29
-246 -4 -4 -13 47 -20 115 -15 145 -35 272 -62 383 -21 89 -25 140 -9 130 6
-4 29 -43 51 -87z m-66 -50 c20 -91 65 -439 65 -492 -1 -59 -17 -26 -35 71
-20 107 -75 506 -74 535 1 20 3 19 15 -10 8 -18 21 -65 29 -104z m-3770 112
c-3 -5 -12 -10 -18 -10 -7 0 -50 -31 -96 -70 -47 -38 -86 -68 -89 -65 -7 6 66
92 96 111 62 41 123 60 107 34z m430 -109 c20 -60 54 -146 76 -192 22 -45 38
-84 36 -86 -8 -7 -135 137 -151 171 -18 37 -23 216 -7 216 5 0 26 -49 46 -109z
m200 -86 c42 -83 82 -225 65 -225 -4 0 -29 48 -56 108 -27 59 -70 148 -96 199
-27 51 -48 96 -48 100 2 24 97 -105 135 -182z m-445 145 c-27 -21 -343 -180
-357 -180 -17 1 77 54 222 126 82 41 152 74 155 74 3 0 -6 -9 -20 -20z m39
-53 c-84 -78 -155 -121 -261 -157 -84 -28 -158 -45 -158 -36 0 3 82 45 183 94
100 48 207 105 237 125 30 20 57 37 60 37 3 -1 -25 -29 -61 -63z m336 -130
c40 -84 76 -163 79 -177 7 -24 6 -24 -19 5 -34 40 -107 183 -139 273 -54 151
-23 112 79 -101z m2813 118 c6 -29 -9 -106 -19 -100 -15 10 -12 128 4 123 6
-3 14 -13 15 -23z m1137 13 c35 -16 64 -66 67 -119 3 -43 3 -44 -27 -41 -16 2
-57 12 -90 22 -33 11 -127 36 -209 55 -82 19 -151 37 -154 40 -3 3 24 5 59 5
35 0 111 11 169 24 123 28 150 30 185 14z m-3797 -78 c36 -38 61 -177 44 -235
-11 -35 -11 -36 -45 105 -14 58 -29 115 -33 128 -8 28 9 29 34 2z m3243 7 c-1
-12 -15 -9 -19 4 -3 6 1 10 8 8 6 -3 11 -8 11 -12z m246 -33 c241 -49 403
-113 403 -161 0 -20 -39 -16 -126 13 -158 52 -445 172 -417 173 6 1 69 -11
140 -25z m-79 -46 c73 -33 200 -87 311 -129 53 -21 8 -18 -90 5 -131 31 -210
60 -276 102 -57 36 -92 81 -54 69 12 -3 61 -25 109 -47z m-394 -61 c9 -53 16
-116 15 -139 l-1 -43 -14 45 c-14 44 -32 250 -21 240 3 -3 13 -49 21 -103z
m-3630 32 c-27 -28 -78 -69 -114 -92 -36 -23 -132 -86 -213 -140 -82 -54 -151
-96 -153 -94 -7 7 204 194 275 246 69 48 243 143 250 135 3 -2 -17 -27 -45
-55z m90 4 c-100 -122 -252 -240 -411 -319 -61 -31 -117 -54 -123 -52 -6 2 53
46 131 98 188 125 290 201 368 272 35 32 66 56 69 53 3 -2 -13 -26 -34 -52z
m153 -46 c13 -50 47 -168 76 -262 30 -93 57 -183 61 -200 l7 -30 -21 25 c-65
81 -138 270 -160 412 -10 71 -6 148 9 148 3 0 16 -42 28 -93z m58 -14 c-7 -17
-8 -17 -15 2 -5 11 -9 34 -9 50 l0 30 16 -32 c9 -18 13 -39 8 -50z m3304 -121
c43 -152 51 -171 88 -216 13 -16 21 -31 18 -34 -15 -15 -133 151 -146 204 -9
39 -13 201 -5 193 3 -2 23 -68 45 -147z m496 89 c61 -23 66 -26 40 -29 -55 -7
-145 31 -145 61 0 5 8 6 18 2 9 -5 49 -20 87 -34z m-4355 25 c0 -3 -273 -253
-324 -296 -21 -17 -11 1 32 60 100 136 147 186 204 214 45 23 88 34 88 22z
m4191 -103 c52 -134 109 -302 109 -322 0 -48 -115 186 -140 286 -18 70 -26
143 -16 143 3 0 23 -48 47 -107z m-3876 34 c-42 -90 -108 -155 -200 -198 -71
-33 -190 -73 -280 -93 -26 -6 -24 -3 15 20 25 14 77 42 115 61 104 52 221 133
300 206 39 36 71 63 73 62 2 -2 -8 -28 -23 -58z m104 -8 c7 -34 28 -106 47
-161 19 -55 33 -102 31 -104 -6 -7 -64 127 -80 187 -21 74 -29 139 -18 139 4
0 14 -27 20 -61z m3837 -12 c39 -76 70 -164 99 -276 24 -96 32 -151 19 -138
-7 7 -152 418 -161 456 -9 39 14 16 43 -42z m-3652 10 c61 -104 109 -293 88
-347 -12 -30 -9 -36 -56 125 -61 211 -75 265 -66 265 5 0 20 -19 34 -43z m114
-34 c57 -46 72 -79 72 -155 -1 -71 -11 -125 -37 -187 l-18 -42 -1 78 c0 90
-26 214 -60 292 -13 29 -24 55 -24 58 0 7 22 -7 68 -44z m3466 -182 c20 -39
36 -76 36 -84 0 -7 11 -28 25 -47 14 -18 23 -36 20 -38 -7 -7 -38 33 -113 143
-72 106 -80 139 -52 210 12 30 13 30 31 -41 9 -40 34 -104 53 -143z m512 164
c15 -37 18 -83 8 -134 l-7 -32 -87 86 c-53 51 -96 85 -108 85 -29 0 -37 18
-10 23 13 2 60 5 106 6 l83 1 15 -35z m-214 -28 c80 -47 199 -159 185 -173 -3
-4 -59 29 -124 71 -133 87 -193 133 -193 145 0 13 83 -14 132 -43z m-49 -74
c47 -24 108 -65 103 -70 -5 -6 -107 44 -136 67 -31 24 -11 26 33 3z m-4199
-34 c-68 -72 -328 -275 -466 -363 -125 -79 -33 6 142 131 47 34 114 87 150
118 129 114 246 190 174 114z m101 -102 c1 -145 19 -337 42 -425 20 -81 11
-90 -17 -16 -86 231 -102 402 -48 537 6 15 13 27 17 27 3 0 6 -55 6 -123z m94
38 c32 -103 44 -216 38 -353 -3 -70 -12 -149 -20 -177 l-14 -50 -11 65 c-21
117 -32 242 -39 425 -6 167 -5 179 10 166 9 -7 26 -41 36 -76z m3708 -27 c58
-89 109 -140 164 -168 52 -27 47 -33 -13 -16 -102 31 -172 86 -202 158 -18 42
-21 98 -6 98 5 0 31 -33 57 -72z m363 27 c28 -14 50 -32 50 -41 0 -21 -18 -54
-30 -54 -5 0 -28 27 -50 60 -22 33 -36 60 -30 60 6 0 33 -11 60 -25z m25 -155
c-8 -14 -104 38 -120 65 -7 11 -16 38 -19 60 l-7 40 76 -78 c42 -43 73 -82 70
-87z m-4510 115 c-22 -20 -83 -65 -135 -103 -52 -37 -119 -86 -148 -110 -88
-71 -71 -39 34 66 81 80 114 106 184 140 47 23 90 42 95 42 6 -1 -8 -16 -30
-35z m4603 -36 c2 -14 -3 -31 -11 -37 -21 -18 -41 10 -33 44 9 33 40 29 44 -7z
m-4058 -21 c0 -14 -19 1 -31 25 -12 22 -12 22 10 3 11 -11 21 -23 21 -28z
m-761 5 c-8 -10 -55 -65 -104 -123 -50 -58 -106 -127 -125 -153 -19 -27 -36
-44 -38 -37 -7 21 96 215 135 252 57 56 168 107 132 61z m438 -15 c-3 -7 -5
-2 -5 12 0 14 2 19 5 13 2 -7 2 -19 0 -25z m-219 -90 c-29 -34 -71 -75 -93
-91 -47 -35 -264 -142 -272 -134 -3 3 53 43 124 89 70 47 164 110 207 141 43
31 81 57 83 57 3 0 -19 -28 -49 -62z m553 -13 c10 -22 19 -56 19 -75 0 -37
-37 -125 -69 -166 -19 -24 -19 -24 -15 64 3 48 7 125 10 172 6 78 7 83 21 65
8 -11 24 -38 34 -60z m-456 -22 c-43 -68 -103 -137 -225 -258 -71 -71 -130
-125 -130 -120 1 18 60 89 207 248 138 148 187 192 148 130z m170 -145 c34
-113 32 -145 -4 -55 -28 70 -51 164 -50 202 l1 30 10 -35 c6 -19 25 -83 43
-142z m-144 -113 c-16 -149 -43 -309 -53 -320 -24 -25 18 423 45 483 12 26 12
25 15 -18 2 -24 -1 -90 -7 -145z m74 73 c31 -139 31 -183 -5 -289 -31 -95 -66
-166 -76 -156 -3 3 2 54 11 114 8 59 21 174 27 256 7 81 15 147 19 147 4 0 15
-32 24 -72z m-327 35 c-8 -10 -58 -70 -110 -133 -99 -120 -125 -147 -134 -137
-3 3 8 31 24 63 16 33 37 80 47 106 15 42 24 51 69 71 119 54 127 57 104 30z
m166 -5 c-65 -110 -164 -224 -243 -277 -135 -91 -123 -71 59 107 102 100 186
181 188 181 2 1 0 -5 -4 -11z m-426 -223 c-24 -71 -48 -130 -54 -132 -13 -4
-11 13 12 123 10 49 24 81 45 108 17 20 33 35 35 33 2 -2 -15 -62 -38 -132z
m422 60 c-5 -27 -9 -104 -10 -170 -1 -135 -15 -140 -26 -9 -6 84 7 197 27 220
17 20 18 15 9 -41z m270 -46 c0 -38 -57 -170 -80 -184 -11 -7 -4 41 17 99 7
21 13 71 13 110 l1 71 24 -28 c18 -20 25 -40 25 -68z m3039 18 c-2 -2 -44 -30
-94 -62 -122 -78 -194 -135 -295 -230 -138 -130 -154 -143 -141 -118 19 38
173 193 261 265 76 62 257 165 269 153 2 -3 2 -7 0 -8z m231 -4 c0 -5 -27 -18
-60 -30 -67 -24 -71 -12 -6 18 44 20 66 24 66 12z m-3611 -131 c1 -64 -19
-116 -62 -160 -27 -29 -94 -72 -112 -72 -13 0 -1 28 58 134 34 62 71 139 82
171 l20 58 7 -39 c4 -22 7 -63 7 -92z m3424 97 c-37 -64 -194 -200 -352 -303
-186 -122 -181 -120 -181 -107 0 44 317 309 500 418 48 29 54 28 33 -8z m312
21 c-4 -6 -52 -33 -108 -61 -56 -28 -132 -69 -169 -90 -36 -22 -69 -39 -72
-39 -4 0 5 22 18 48 22 44 30 51 98 77 67 27 212 73 231 74 5 1 5 -4 2 -9z
m65 -27 c0 -12 -126 -99 -280 -196 -166 -104 -240 -142 -240 -124 0 19 51 75
86 95 17 9 63 38 101 64 82 55 296 168 318 168 8 0 15 -3 15 -7z m300 -13 c0
-5 -7 -10 -16 -10 -8 0 -12 5 -9 10 3 6 10 10 16 10 5 0 9 -4 9 -10z m-173
-27 c-87 -24 -112 -24 -89 -1 13 13 78 25 137 26 33 0 25 -4 -48 -25z m-909
-100 c-66 -65 -148 -154 -181 -198 -33 -44 -62 -82 -64 -84 -2 -2 -6 -2 -9 2
-3 3 11 38 32 79 46 88 191 239 274 287 30 17 58 31 62 31 3 0 -48 -53 -114
-117z m-3114 36 c-14 -28 -27 -49 -30 -46 -7 6 38 97 48 97 5 0 -3 -23 -18
-51z m4271 41 c-3 -5 -14 -10 -23 -10 -9 0 -42 -12 -72 -27 -48 -23 -52 -27
-30 -30 14 -2 50 5 80 16 165 58 -30 -72 -221 -147 -110 -44 -357 -107 -337
-87 13 13 261 127 338 155 73 27 101 50 61 50 -20 0 -196 -72 -283 -116 -27
-14 -48 -21 -48 -18 0 4 21 30 48 59 26 28 55 61 64 73 20 25 154 69 248 81
96 12 182 13 175 1z m-4356 -121 c-65 -137 -100 -150 -39 -14 17 37 30 73 30
80 0 18 44 49 48 35 2 -6 -15 -51 -39 -101z m3902 59 c-48 -65 -107 -123 -161
-158 -73 -47 -215 -102 -253 -98 -29 3 -19 11 123 97 85 52 191 118 235 148
44 29 81 53 83 53 2 0 -10 -19 -27 -42z m683 -18 c7 -7 -10 -10 -54 -10 -36
-1 -84 -5 -108 -9 -48 -9 -53 4 -11 27 28 15 156 9 173 -8z m-4648 -18 c-8
-15 -26 -68 -40 -116 -14 -49 -28 -91 -31 -94 -24 -24 -25 95 -1 152 16 38 58
86 76 86 7 0 5 -10 -4 -28z m3548 -59 c-60 -88 -116 -139 -196 -179 -126 -63
-252 -104 -234 -75 3 4 74 56 158 114 84 58 187 131 228 162 41 31 76 51 78
45 3 -7 -13 -37 -34 -67z m906 -48 c-124 -41 -229 -75 -235 -75 -5 0 25 20 67
45 42 25 81 52 86 61 14 25 98 43 207 43 l100 0 -225 -74z m284 35 c-19 -20
-131 -64 -249 -99 -84 -25 -265 -64 -271 -58 -9 8 168 74 286 106 63 17 142
40 175 51 77 24 84 24 59 0z m-414 -1 c0 -14 -161 -88 -275 -127 -106 -37
-223 -58 -238 -43 -7 7 0 12 19 16 146 33 339 96 444 144 53 24 50 24 50 10z
m584 -50 c6 -5 -4 -14 -25 -23 -47 -19 -197 -51 -206 -43 -10 11 29 48 72 69
31 14 53 17 95 12 30 -3 59 -10 64 -15z m706 -59 c-6 -12 -14 -19 -17 -17 -2
3 1 15 7 27 6 12 14 19 17 17 2 -3 -1 -15 -7 -27z m-1010 0 c-24 -16 -148 -52
-162 -48 -15 5 126 56 157 57 17 1 17 -1 5 -9z m300 1 c0 -6 -15 -21 -32 -34
-75 -56 -134 -71 -171 -43 -25 19 -8 30 98 59 105 30 105 30 105 18z m-4420
-60 c-20 -11 -100 -25 -100 -17 0 11 44 25 80 25 24 0 30 -2 20 -8z m4103 -5
c3 -7 23 -16 46 -20 22 -3 43 -11 47 -17 9 -15 -50 -5 -102 17 -29 12 -34 18
-23 25 19 12 26 11 32 -5z m-253 -6 c0 -5 -7 -10 -15 -10 -8 0 -15 5 -15 10 0
6 7 10 15 10 8 0 15 -4 15 -10z m-3714 -9 c-5 -8 -45 -21 -266 -86 -69 -20
-153 -52 -188 -71 -72 -39 -82 -42 -58 -15 31 34 156 89 301 131 77 23 145 43
150 45 21 7 66 5 61 -4z m-286 -11 c0 -5 -2 -10 -4 -10 -2 0 -41 -16 -85 -35
-84 -36 -113 -31 -39 6 41 21 106 47 121 48 4 1 7 -3 7 -9z m3172 -53 c37 -26
288 -308 288 -324 0 -2 -46 35 -102 83 -57 47 -137 106 -178 130 -68 40 -209
94 -246 94 -30 0 -12 20 39 39 72 29 136 22 199 -22z m586 -16 c72 -33 149
-65 170 -71 22 -5 51 -19 64 -29 l23 -20 -45 10 c-135 30 -403 120 -416 140
-6 10 30 27 57 28 9 1 75 -26 147 -58z m402 48 c131 -12 179 -28 85 -29 -68 0
-181 17 -204 30 -20 12 -18 12 119 -1z m1016 -112 c-102 -186 -215 -414 -272
-549 -126 -296 -226 -468 -498 -852 -209 -296 -422 -602 -559 -801 -64 -93
-177 -249 -252 -345 -637 -822 -786 -1045 -985 -1475 -226 -488 -270 -625
-325 -996 -14 -96 -39 -240 -56 -320 -16 -79 -39 -192 -49 -252 -21 -114 -28
-132 -90 -229 -22 -34 -40 -66 -40 -72 0 -5 22 12 50 39 27 27 52 46 55 43 4
-3 -15 -48 -41 -99 l-47 -94 6 -347 c3 -192 2 -348 -2 -348 -11 0 -45 41 -59
70 -6 14 -21 36 -32 50 -20 25 -21 38 -21 285 1 355 17 458 101 625 81 162
110 277 130 525 6 72 17 173 25 225 54 333 251 897 428 1220 53 98 267 466
320 550 119 190 565 757 1042 1325 239 283 405 507 484 650 27 50 126 221 221
380 95 160 242 421 327 580 172 320 185 343 191 326 2 -6 -21 -57 -52 -114z
m-4706 6 c0 -7 13 -25 30 -39 16 -15 39 -51 49 -79 21 -56 51 -238 50 -301 -1
-49 -5 -39 -54 114 -36 114 -51 155 -119 312 l-37 85 40 -40 c23 -21 41 -45
41 -52z m2940 68 c66 -25 167 -99 213 -154 46 -56 48 -70 5 -26 -44 44 -190
138 -255 164 -29 12 -56 25 -60 29 -14 13 49 5 97 -13z m478 -15 c103 -40 196
-85 189 -92 -6 -6 -267 103 -281 117 -16 14 -3 11 92 -25z m221 4 c46 -5 86
-12 89 -14 3 -3 -1 -13 -9 -22 -13 -16 -9 -17 59 -11 39 4 72 5 72 2 0 -2 -14
-12 -32 -21 -51 -26 -138 -16 -231 28 -42 21 -77 39 -77 43 0 7 33 6 129 -5z
m-3924 -9 c-18 -15 -349 -141 -373 -141 -3 0 3 9 13 20 22 24 94 52 245 95
135 39 126 37 115 26z m3475 -43 c111 -39 317 -89 393 -95 123 -10 68 -24
-101 -26 -234 -3 -280 11 -351 108 -28 38 -31 47 -16 41 11 -4 45 -17 75 -28z
m-3445 6 c-58 -45 -237 -115 -253 -99 -5 5 -2 6 148 69 112 48 137 55 105 30z
m2778 1 c79 -21 161 -64 253 -134 89 -67 180 -156 149 -145 -11 4 -112 55
-225 115 -211 110 -316 158 -347 160 -16 0 -15 1 2 9 31 14 106 11 168 -5z
m403 -6 c62 -28 204 -125 269 -184 61 -56 39 -47 -120 53 -103 64 -173 112
-209 144 -18 15 10 9 60 -13z m-3035 -156 c44 -198 42 -181 23 -158 -8 11 -31
51 -51 89 -35 70 -43 119 -28 187 11 50 25 21 56 -118z m109 -68 c43 -124 74
-255 62 -267 -24 -24 -153 353 -151 442 0 35 47 -57 89 -175z m2500 134 c47
-22 167 -85 268 -141 231 -127 247 -144 85 -87 -155 55 -421 198 -473 255
l-25 27 30 -7 c17 -4 68 -25 115 -47z m470 -15 c41 -28 112 -72 158 -99 71
-42 98 -65 76 -65 -4 0 -54 25 -113 55 -106 55 -192 119 -212 157 -13 23 -16
25 91 -48z m-486 -61 c133 -85 303 -168 396 -193 l75 -21 -80 5 c-100 5 -181
34 -316 112 -94 54 -219 155 -219 176 0 11 21 0 144 -79z m-2835 50 c-2 -27
-226 -161 -372 -223 -159 -67 -134 -40 49 53 94 48 202 107 240 132 69 45 85
52 83 38z m-169 -38 c0 -2 -54 -32 -121 -66 -66 -34 -143 -77 -171 -95 -96
-65 -64 -11 42 71 73 56 108 73 172 84 68 11 78 12 78 6z m4080 -12 c3 -3 -5
-13 -17 -23 -32 -26 -156 -46 -191 -31 -28 12 -82 55 -82 66 0 6 282 -5 290
-12z m-3821 -25 c-13 -44 -12 -357 0 -432 6 -33 9 -62 6 -64 -8 -9 -37 76 -51
148 -22 122 -14 264 21 346 18 44 37 45 24 2z m-489 7 c-18 -22 -110 -86 -110
-77 0 16 93 92 113 92 5 0 4 -7 -3 -15z m5402 -22 c-6 -10 -47 -117 -92 -238
-136 -367 -231 -549 -500 -960 -188 -288 -363 -561 -513 -805 -159 -259 -148
-244 -550 -774 -349 -459 -425 -577 -626 -976 -198 -392 -366 -790 -332 -790
4 0 58 120 121 268 285 670 515 1052 1020 1697 195 249 236 308 400 575 73
118 228 361 345 540 419 643 515 812 630 1122 53 141 86 202 59 108 -56 -196
-209 -598 -300 -785 -58 -121 -215 -399 -273 -485 -21 -30 -123 -181 -227
-335 -104 -154 -241 -350 -304 -435 -142 -193 -564 -756 -651 -870 -137 -177
-276 -408 -444 -734 -230 -446 -371 -789 -556 -1351 -35 -104 -64 -183 -66
-175 -2 8 21 96 52 194 30 99 55 188 55 198 0 44 -22 -1 -60 -125 -55 -178
-93 -284 -97 -271 -2 6 14 94 36 195 38 179 45 216 76 444 36 267 110 489 292
875 144 308 223 452 360 660 120 180 454 630 663 890 72 91 202 271 288 400
85 129 203 300 262 380 58 80 121 168 140 195 18 28 86 124 151 215 200 281
312 482 519 930 71 153 116 240 126 240 2 0 1 -8 -4 -17z m49 -16 c-8 -8 -11
-7 -11 4 0 9 3 19 7 23 4 4 9 2 11 -4 3 -7 -1 -17 -7 -23z m-4902 -59 c23
-108 41 -278 46 -428 5 -138 4 -152 -8 -130 -36 62 -67 294 -67 503 0 59 4
107 9 107 5 0 14 -24 20 -52z m3328 10 c70 -33 83 -42 64 -46 -34 -6 -103 24
-136 58 -16 17 -26 30 -22 30 4 0 46 -19 94 -42z m1537 -32 c-10 -20 -21 -36
-26 -36 -5 0 1 18 12 41 26 50 38 46 14 -5z m-5084 -16 c-74 -93 -199 -189
-410 -313 -152 -89 -266 -134 -199 -77 33 27 313 215 424 283 50 31 117 76
150 101 32 25 60 46 63 46 2 0 -10 -18 -28 -40z m-100 24 c0 -8 -172 -86 -178
-80 -3 3 33 24 79 46 84 40 99 45 99 34z m420 -80 l45 -67 -1 -96 c-1 -90 -24
-234 -42 -268 -5 -9 -11 42 -15 129 -6 133 -30 339 -43 359 -3 5 -2 9 3 9 4 0
28 -30 53 -66z m-631 -82 c-13 -10 -62 -45 -109 -77 -79 -55 -190 -138 -268
-201 l-33 -27 11 29 c33 87 110 179 182 215 52 27 196 77 222 78 16 1 16 -1
-5 -17z m357 -337 c-5 -226 -17 -388 -33 -445 -11 -42 -21 53 -28 290 -7 196
-6 227 14 344 13 70 25 136 29 145 15 39 23 -110 18 -334z m-77 248 c-11 -43
-24 -158 -31 -256 -6 -98 -15 -172 -19 -165 -10 19 -39 208 -39 256 0 24 9 56
20 74 11 18 20 45 20 59 0 21 51 109 64 109 2 0 -5 -35 -15 -77z m-69 46 c-23
-41 -127 -135 -185 -166 -64 -34 -168 -67 -188 -60 -6 2 6 15 28 29 66 43 350
218 353 218 1 0 -2 -9 -8 -21z m550 -69 c11 -43 -11 -129 -55 -210 -29 -53
-30 -47 -11 56 8 44 18 109 22 147 5 56 9 65 20 56 8 -6 18 -28 24 -49z m-309
-172 c18 -41 33 -89 33 -108 0 -32 -102 -345 -110 -337 -2 1 1 43 6 92 5 50
10 158 10 242 0 211 8 225 61 111z m-382 30 c-19 -36 -155 -163 -254 -237
-119 -90 -234 -165 -241 -159 -5 6 64 66 301 263 191 160 218 178 194 133z
m-161 -57 c-8 -22 -282 -241 -301 -241 -6 0 25 37 71 83 45 45 82 86 82 90 0
19 -27 -1 -130 -98 -61 -58 -113 -105 -116 -105 -9 0 30 60 78 120 31 38 60
62 82 70 19 6 40 18 46 26 7 7 24 14 39 14 15 0 32 5 38 11 12 12 80 38 101
39 8 0 12 -4 10 -9z m212 -179 c-14 -136 -63 -422 -78 -448 -18 -33 -35 21
-29 92 13 137 104 519 115 485 2 -7 -1 -65 -8 -129z m-132 72 c-54 -76 -141
-147 -248 -203 -56 -29 -103 -51 -105 -49 -2 2 53 45 123 96 71 50 157 117
192 147 36 30 66 55 68 55 2 0 -12 -21 -30 -46z m204 -145 c7 -64 7 -106 0
-144 -11 -51 -111 -319 -118 -312 -2 2 13 84 32 182 20 99 38 218 40 265 3 47
7 96 10 110 9 42 24 1 36 -101z m345 63 c8 -56 -18 -125 -78 -205 -28 -38 -52
-67 -54 -65 -2 2 7 35 21 73 14 39 34 105 44 148 28 117 55 137 67 49z m-528
-118 c-25 -118 -30 -294 -10 -372 16 -62 8 -80 -13 -30 -46 108 -40 348 10
457 13 30 27 52 29 49 3 -3 -4 -49 -16 -104z m-69 38 c0 -13 -31 -55 -79 -105
-46 -49 -153 -137 -166 -137 -4 0 36 45 89 100 52 55 103 111 112 125 15 23
44 35 44 17z m-1143 -59 c-3 -10 -5 -4 -5 12 0 17 2 24 5 18 2 -7 2 -21 0 -30z
m974 -30 c-19 -35 -210 -207 -219 -198 -3 3 25 36 62 75 37 38 65 74 61 80 -3
6 3 10 15 10 12 0 35 11 52 25 35 29 42 31 29 8z m492 -105 c21 -87 22 -118 4
-118 -7 0 -31 -28 -52 -62 -55 -86 -118 -164 -122 -152 -2 6 19 67 48 135 28
68 60 157 72 197 12 39 24 72 28 72 3 0 13 -33 22 -72z m-699 -20 c-68 -72
-94 -95 -94 -83 0 21 136 155 158 155 3 0 -26 -33 -64 -72z m277 14 c-20 -37
-115 -114 -183 -148 -111 -56 -90 -34 111 118 41 32 77 56 79 53 2 -2 -1 -12
-7 -23z m79 9 c0 -12 -20 -25 -27 -18 -7 7 6 27 18 27 5 0 9 -4 9 -9z m-1035
-316 c104 -470 166 -688 237 -829 47 -94 357 -603 413 -678 273 -368 452 -570
1004 -1132 410 -417 509 -525 675 -739 310 -399 482 -660 627 -948 91 -182
125 -266 219 -539 43 -126 83 -237 89 -248 14 -26 14 -35 1 -27 -18 11 -115
214 -175 365 -75 190 -189 422 -266 540 -105 162 -570 771 -707 926 -45 50
-166 168 -269 262 -373 337 -806 806 -1031 1116 -48 65 -142 194 -210 285
-130 175 -178 253 -286 469 -92 183 -121 258 -261 677 -46 139 -120 556 -130
739 -3 44 -3 77 -1 71 3 -5 35 -145 71 -310z m946 109 c-23 -75 -49 -150 -59
-167 l-17 -32 -3 28 c-6 46 105 351 116 319 2 -6 -15 -73 -37 -148z m-1051 96
c5 -10 17 -83 26 -162 20 -187 53 -348 109 -536 52 -175 139 -424 197 -562 48
-116 191 -377 266 -485 93 -133 411 -554 491 -650 247 -294 545 -607 756 -797
272 -245 434 -422 655 -718 68 -91 160 -210 204 -265 163 -204 325 -478 424
-716 43 -105 58 -154 43 -145 -5 4 -52 75 -104 159 -148 238 -405 596 -522
728 -22 25 -128 154 -235 288 l-195 243 -240 205 c-328 281 -546 484 -750 703
-291 312 -396 439 -486 590 -18 30 -60 98 -94 150 -121 186 -175 289 -265 506
-116 277 -125 301 -149 404 -24 99 -137 865 -147 993 -7 88 -3 103 16 67z
m954 -100 c-37 -67 -122 -160 -174 -189 l-43 -24 19 33 c10 18 42 49 69 70 59
44 91 78 82 86 -4 4 -51 -28 -106 -70 -55 -42 -102 -76 -104 -76 -3 0 17 34
45 75 27 41 55 75 62 75 6 0 43 15 81 34 96 47 102 46 69 -14z m178 -34 c-25
-56 -37 -59 -27 -9 9 52 24 78 37 65 7 -7 3 -25 -10 -56z m5015 -88 c-75 -160
-328 -575 -489 -799 -66 -93 -285 -353 -482 -574 -53 -59 -7 12 110 171 315
427 635 887 809 1162 42 68 79 121 82 119 2 -3 -11 -38 -30 -79z m-4971 37 c4
-17 -1 -33 -15 -51 -32 -41 -90 -104 -96 -104 -3 0 15 41 40 90 25 50 50 90
55 90 5 0 12 -11 16 -25z m-256 -152 c0 -62 0 -63 -42 -93 -22 -17 -43 -28
-46 -26 -2 3 12 45 32 94 20 50 36 96 36 103 0 11 2 11 10 -1 5 -8 10 -43 10
-77z m-83 -7 c-4 -9 -11 -16 -17 -16 -11 0 -14 33 -3 43 11 11 26 -10 20 -27z
m-802 -336 c54 -378 72 -457 161 -680 148 -370 397 -794 634 -1079 198 -239
678 -706 1065 -1036 77 -65 164 -144 194 -175 68 -70 447 -520 521 -620 100
-132 298 -407 310 -430 24 -45 -10 -8 -106 117 -55 70 -139 175 -188 233 -130
153 -501 519 -646 637 -390 318 -580 470 -705 565 -112 85 -174 142 -309 287
-198 213 -273 301 -366 431 -226 316 -353 610 -474 1095 -91 366 -120 539
-141 840 -3 50 -8 108 -11 130 -3 27 -2 35 5 25 5 -8 30 -161 56 -340z m739
275 c-5 -30 -9 -34 -16 -21 -12 21 0 82 14 68 5 -5 6 -26 2 -47z m3996 -1723
c0 -4 -26 -48 -57 -98 -66 -105 -244 -453 -325 -639 -32 -71 -83 -186 -114
-255 -138 -306 -229 -585 -279 -854 -33 -175 -104 -347 -218 -526 -34 -52 -71
-123 -84 -157 -30 -83 -43 -229 -43 -486 0 -208 -6 -247 -36 -247 -30 0 -38
73 -12 106 5 7 4 22 -1 37 -30 79 -20 553 14 633 23 56 28 35 9 -37 -17 -65
-26 -321 -11 -335 14 -15 18 7 26 157 8 144 11 160 44 240 20 47 52 142 72
210 123 425 282 866 429 1196 63 141 226 466 330 657 74 135 242 406 253 406
2 0 3 -4 3 -8z m-1143 -1789 c-3 -10 -5 -4 -5 12 0 17 2 24 5 18 2 -7 2 -21 0
-30z m97 -447 c-3 -14 -10 -26 -15 -26 -11 0 -11 3 1 36 13 33 23 26 14 -10z
m-733 -439 c11 -21 18 -41 16 -43 -5 -5 -67 91 -67 102 0 15 33 -23 51 -59z
m80 -130 c12 -22 12 -22 -10 -3 -11 11 -21 23 -21 28 0 14 19 -1 31 -25z m236
-417 c14 -30 20 -50 15 -45 -16 15 -79 137 -87 165 -8 33 40 -48 72 -120z m53
-106 c0 -8 -4 -12 -10 -9 -5 3 -10 13 -10 21 0 8 5 12 10 9 6 -3 10 -13 10
-21z m187 -34 c20 0 45 -59 51 -123 4 -44 2 -58 -6 -53 -7 4 -12 14 -12 22 0
25 -36 87 -79 136 -23 25 -41 48 -41 51 0 3 17 -4 37 -14 21 -10 43 -19 50
-19z"/>
<path d="M5588 12030 c-18 -16 -27 -30 -21 -30 7 0 27 13 45 30 18 16 27 30
21 30 -7 0 -27 -13 -45 -30z"/>
<path d="M5335 11923 c-143 -55 -152 -60 -144 -68 12 -12 309 103 309 120 0
11 -30 1 -165 -52z"/>
<path d="M4342 11483 c-7 -12 -12 -34 -11 -50 l1 -28 14 34 c18 41 15 78 -4
44z"/>
<path d="M5462 11577 c-33 -34 -39 -47 -23 -47 12 0 66 69 59 75 -2 3 -19 -10
-36 -28z"/>
<path d="M3560 1115 c-25 -30 -32 -161 -21 -373 6 -114 11 -222 11 -240 0 -18
4 -31 8 -28 5 3 12 139 15 303 4 164 10 310 13 326 7 29 -6 36 -26 12z"/>
<path d="M3987 2158 c-19 -62 -43 -140 -52 -173 -9 -33 -18 -68 -21 -77 -3
-10 -1 -18 5 -18 10 0 67 165 96 280 9 36 18 73 21 83 3 9 1 17 -4 17 -6 0
-26 -51 -45 -112z"/>
<path d="M3673 570 c-8 -41 -9 -68 -3 -74 15 -15 21 15 18 80 l-3 59 -12 -65z"/>
</g>
</svg>
